<?xml version="1.0" encoding="UTF-8" standalone="no"?>
<!DOCTYPE svg PUBLIC "-//W3C//DTD SVG 1.1//EN"
 "http://www.w3.org/Graphics/SVG/1.1/DTD/svg11.dtd">
<!-- Generated by graphviz version 2.40.1 (20161225.0304)
 -->
<!-- Title: dependencies Pages: 1 -->
<svg width="504pt" height="284pt"
 viewBox="0.00 0.00 504.00 284.00" xmlns="http://www.w3.org/2000/svg" xmlns:xlink="http://www.w3.org/1999/xlink">
<g id="graph0" class="graph" transform="scale(1 1) rotate(0) translate(4 280)">
<title>dependencies</title>
<polygon fill="#ffffff" stroke="transparent" points="-4,4 -4,-280 500,-280 500,4 -4,4"/>
<text text-anchor="start" x="227.0091" y="-42.4" font-family="sans-serif" font-weight="bold" font-size="14.00" fill="#000000">Legend</text>
<polygon fill="#ffffb3" stroke="transparent" points="14,-10 14,-30 34,-30 34,-10 14,-10"/>
<text text-anchor="start" x="37.629" y="-15.4" font-family="sans-serif" font-size="14.00" fill="#000000"> &#160;Declarations</text>
<polygon fill="#8dd3c7" stroke="transparent" points="127,-10 127,-30 147,-30 147,-10 127,-10"/>
<text text-anchor="start" x="150.7251" y="-15.4" font-family="sans-serif" font-size="14.00" fill="#000000"> &#160;Module</text>
<polygon fill="#80b1d3" stroke="transparent" points="213,-10 213,-30 233,-30 233,-10 213,-10"/>
<text text-anchor="start" x="236.7812" y="-15.4" font-family="sans-serif" font-size="14.00" fill="#000000"> &#160;Bootstrap</text>
<polygon fill="#fdb462" stroke="transparent" points="310,-10 310,-30 330,-30 330,-10 310,-10"/>
<text text-anchor="start" x="333.6732" y="-15.4" font-family="sans-serif" font-size="14.00" fill="#000000"> &#160;Providers</text>
<polygon fill="#fb8072" stroke="transparent" points="406,-10 406,-30 426,-30 426,-10 406,-10"/>
<text text-anchor="start" x="429.7258" y="-15.4" font-family="sans-serif" font-size="14.00" fill="#000000"> &#160;Exports</text>
<g id="clust1" class="cluster">
<title>cluster_DivisionsModule</title>
<polygon fill="none" stroke="#000000" stroke-dasharray="1,5" points="12,-70 12,-268 484,-268 484,-70 12,-70"/>
</g>
<g id="clust2" class="cluster">
<title>cluster_DivisionsModule_declarations</title>
<polygon fill="none" stroke="#000000" points="142,-78 142,-130 476,-130 476,-78 142,-78"/>
</g>
<g id="clust5" class="cluster">
<title>cluster_DivisionsModule_imports</title>
<polygon fill="none" stroke="#000000" points="20,-78 20,-130 134,-130 134,-78 20,-78"/>
</g>
<g id="clust6" class="cluster">
<title>cluster_DivisionsModule_exports</title>
<polygon fill="none" stroke="#000000" points="78,-208 78,-260 418,-260 418,-208 78,-208"/>
</g>
<!-- DivisionEditorComponent -->
<g id="node1" class="node">
<title>DivisionEditorComponent</title>
<polygon fill="#ffffb3" stroke="#000000" points="468.0504,-122 303.9496,-122 303.9496,-86 468.0504,-86 468.0504,-122"/>
<text text-anchor="middle" x="386" y="-99.8" font-family="Times,serif" font-size="14.00" fill="#000000">DivisionEditorComponent</text>
</g>
<!-- DivisionsModule -->
<g id="node3" class="node">
<title>DivisionsModule</title>
<polygon fill="#8dd3c7" stroke="#000000" points="274.7176,-187 271.7176,-191 250.7176,-191 247.7176,-187 161.2824,-187 161.2824,-151 274.7176,-151 274.7176,-187"/>
<text text-anchor="middle" x="218" y="-164.8" font-family="Times,serif" font-size="14.00" fill="#000000">DivisionsModule</text>
</g>
<!-- DivisionEditorComponent&#45;&gt;DivisionsModule -->
<g id="edge1" class="edge">
<title>DivisionEditorComponent&#45;&gt;DivisionsModule</title>
<path fill="none" stroke="#000000" d="M356.875,-122.1061C356.875,-141.3391 356.875,-169 356.875,-169 356.875,-169 284.8865,-169 284.8865,-169"/>
<polygon fill="#000000" stroke="#000000" points="284.8865,-165.5001 274.8865,-169 284.8864,-172.5001 284.8865,-165.5001"/>
</g>
<!-- DivisionsComponent -->
<g id="node2" class="node">
<title>DivisionsComponent</title>
<polygon fill="#ffffb3" stroke="#000000" points="285.5,-122 150.5,-122 150.5,-86 285.5,-86 285.5,-122"/>
<text text-anchor="middle" x="218" y="-99.8" font-family="Times,serif" font-size="14.00" fill="#000000">DivisionsComponent</text>
</g>
<!-- DivisionsComponent&#45;&gt;DivisionsModule -->
<g id="edge2" class="edge">
<title>DivisionsComponent&#45;&gt;DivisionsModule</title>
<path fill="none" stroke="#000000" d="M218,-122.1061C218,-122.1061 218,-140.991 218,-140.991"/>
<polygon fill="#000000" stroke="#000000" points="214.5001,-140.9909 218,-150.991 221.5001,-140.991 214.5001,-140.9909"/>
</g>
<!-- DivisionEditorComponent  -->
<g id="node5" class="node">
<title>DivisionEditorComponent </title>
<polygon fill="#fb8072" stroke="#000000" points="410.0498,-252 241.9502,-252 241.9502,-216 410.0498,-216 410.0498,-252"/>
<text text-anchor="middle" x="326" y="-229.8" font-family="Times,serif" font-size="14.00" fill="#000000">DivisionEditorComponent </text>
</g>
<!-- DivisionsModule&#45;&gt;DivisionEditorComponent  -->
<g id="edge4" class="edge">
<title>DivisionsModule&#45;&gt;DivisionEditorComponent </title>
<path fill="none" stroke="#000000" stroke-dasharray="5,2" d="M258.2919,-187.1061C258.2919,-187.1061 258.2919,-205.991 258.2919,-205.991"/>
<polygon fill="#000000" stroke="#000000" points="254.792,-205.9909 258.2919,-215.991 261.792,-205.991 254.792,-205.9909"/>
</g>
<!-- DivisionsComponent  -->
<g id="node6" class="node">
<title>DivisionsComponent </title>
<polygon fill="#fb8072" stroke="#000000" points="224.0009,-252 85.9991,-252 85.9991,-216 224.0009,-216 224.0009,-252"/>
<text text-anchor="middle" x="155" y="-229.8" font-family="Times,serif" font-size="14.00" fill="#000000">DivisionsComponent </text>
</g>
<!-- DivisionsModule&#45;&gt;DivisionsComponent  -->
<g id="edge5" class="edge">
<title>DivisionsModule&#45;&gt;DivisionsComponent </title>
<path fill="none" stroke="#000000" stroke-dasharray="5,2" d="M192.8207,-187.1061C192.8207,-187.1061 192.8207,-205.991 192.8207,-205.991"/>
<polygon fill="#000000" stroke="#000000" points="189.3207,-205.9909 192.8207,-215.991 196.3207,-205.991 189.3207,-205.9909"/>
</g>
<!-- SharedModule -->
<g id="node4" class="node">
<title>SharedModule</title>
<polygon fill="#8dd3c7" stroke="#000000" points="126.4231,-122 123.4231,-126 102.4231,-126 99.4231,-122 27.5769,-122 27.5769,-86 126.4231,-86 126.4231,-122"/>
<text text-anchor="middle" x="77" y="-99.8" font-family="Times,serif" font-size="14.00" fill="#000000">SharedModule</text>
</g>
<!-- SharedModule&#45;&gt;DivisionsModule -->
<g id="edge3" class="edge">
<title>SharedModule&#45;&gt;DivisionsModule</title>
<path fill="none" stroke="#000000" d="M105.9806,-122.1061C105.9806,-141.3391 105.9806,-169 105.9806,-169 105.9806,-169 151.3339,-169 151.3339,-169"/>
<polygon fill="#000000" stroke="#000000" points="151.334,-172.5001 161.3339,-169 151.3339,-165.5001 151.334,-172.5001"/>
</g>
</g>
</svg>
