<?xml version="1.0" encoding="UTF-8" standalone="no"?>
<svg xmlns="http://www.w3.org/2000/svg" viewBox="0 0 705.97443 773" version="1.1">
  <path
     d="m 0,731.49999 v -41.5 H 352.5 705 v 41.5 41.5 H 352.5 0 Z m 74.93879,-58.86497 c -6.45705,-1.74121 -10.85434,-5.22305 -13.31485,-10.54288 -1.94077,-4.19613 -2.15234,-6.64034 -2.45326,-28.34215 l -0.32932,-23.75 H 61.92068 65 v 22.78811 c 0,21.64341 0.11302,23.01224 2.25,27.25 2.59263,5.14136 8.88069,8.96189 14.75,8.96189 5.869314,0 12.157364,-3.82053 14.750004,-8.96189 2.13698,-4.23776 2.25,-5.60659 2.25,-27.25 v -22.78811 h 3.090846 3.09085 l -0.35866,24.25 c -0.33809,22.8593 -0.4878,24.49367 -2.6106,28.49888 -2.635746,4.97304 -7.894716,8.73899 -14.212436,10.17756 -5.629764,1.28192 -7.370814,1.24307 -13.061214,-0.29141 z M 323.5,673.37278 c -8.98975,-2.26144 -15.0815,-6.67198 -18.51744,-13.40698 -4.27812,-8.38581 -4.91413,-23.02327 -1.44085,-33.16034 2.10671,-6.14863 8.3491,-13.13437 13.69194,-15.32242 5.66288,-2.31911 16.86982,-2.31911 22.5327,0 5.46836,2.23945 11.62644,9.24489 13.92968,15.84643 2.44882,7.01878 2.39512,21.22664 -0.10793,28.55664 -2.22611,6.51898 -7.64569,12.79392 -13.16714,15.24526 -4.25248,1.88796 -13.47151,3.10915 -16.92096,2.24141 z m 12.28212,-5.92347 C 344.87168,663.65817 350,654.3491 350,641.64062 350,629.19939 345.07406,619.75493 336.57074,615.8928 321.4379,609.01962 307,621.52232 307,641.49999 c 0,19.48868 14.00302,32.11349 28.78212,25.94932 z m 340.62459,5.52001 c -10.1468,-2.0117 -16.84998,-7.03698 -21.0588,-15.78746 -2.36833,-4.92394 -2.73988,-6.94911 -2.78536,-15.18187 -0.0458,-8.28872 0.29105,-10.23443 2.64176,-15.26004 3.25309,-6.95483 7.46328,-11.09865 14.79569,-14.56247 4.76686,-2.25185 6.69969,-2.5781 14.5,-2.44749 11.9776,0.20054 14.90663,1.10309 15.3297,4.72363 0.27813,2.38019 0.0439,2.71183 -1.49777,2.12025 -8.0149,-3.07561 -20.3767,-3.15345 -26.15628,-0.16471 -9.60657,4.96775 -14.19183,13.35136 -14.15369,25.87834 0.0343,11.26543 4.51356,19.25048 13.47804,24.02694 3.10476,1.65427 5.79048,2.13735 12,2.15841 4.4,0.0149 9.2375,-0.31893 10.75,-0.74191 l 2.75,-0.76905 v -11.48095 -11.48095 h -7 c -6.8,0 -7,-0.0714 -7,-2.5 v -2.5 h 10 10 v 15.37868 15.37868 l -2.75,1.13587 c -3.22421,1.33175 -13.65517,3.14063 -17.25,2.99141 -1.375,-0.0571 -4.34198,-0.46896 -6.59329,-0.91531 z M 19,643.99999 v -29 h -9 c -8.93333,0 -9,-0.0185 -9,-2.5 v -2.5 h 21 21 v 2.5 c 0,2.48148 -0.0667,2.5 -9,2.5 h -9 v 29 29 h -3 -3 z m 110,-2.63727 v -31.63727 l 11.75339,0.48406 c 12.15807,0.50073 15.94104,1.58537 19.58919,5.61653 2.66944,2.94971 3.90805,9.52946 2.66375,14.15044 -1.14186,4.24054 -6.90094,10.02351 -9.98211,10.02351 -2.81712,0 -3.36375,1.69797 -0.75723,2.35216 1.23924,0.31103 2.97962,1.82153 3.86752,3.35667 C 157.94137,648.83283 168,671.45729 168,672.3974 c 0,0.33142 -1.27975,0.60259 -2.84388,0.60259 -2.67692,0 -3.13193,-0.67671 -7.75,-11.52596 -2.69837,-6.33928 -6.06561,-12.94242 -7.48278,-14.67365 -2.27563,-2.77996 -3.29787,-3.19986 -8.75,-3.59423 L 135,642.75961 v 15.12019 15.12019 h -3 -3 z m 22.84278,-5.28252 C 156.00242,633.95811 158,630.5825 158,625.67544 c 0,-6.96984 -5.71625,-10.67545 -16.46788,-10.67545 H 135 v 11.5 11.5 h 6.53984 c 4.47532,0 7.72779,-0.60605 10.30294,-1.91979 z M 186,641.49999 v -31.5 h 3.77385 3.77385 l 15.97615,27.75 15.97615,27.75 0.26582,-27.75 0.26582,-27.75 H 229.01582 232 v 31.5 31.5 h -3.90719 -3.90719 l -15.17542,-26.25 c -8.34648,-14.4375 -15.58825,-26.6775 -16.09281,-27.2 C 192.36007,618.97286 192,629.2759 192,645.79999 v 27.2 h -3 -3 z m 68,0 v -31.5 h 15 15 v 2.5 2.5 h -12 -12 v 11.5 11.5 h 11.5 11.5 v 2.5 2.5 H 271.5 260 v 15 15 h -3 -3 z m 123,-0.13727 v -31.63727 l 11.75339,0.48406 c 12.15807,0.50073 15.94104,1.58537 19.58919,5.61653 2.66944,2.94971 3.90805,9.52946 2.66375,14.15044 -1.14186,4.24054 -6.90094,10.02351 -9.98211,10.02351 -2.81712,0 -3.36375,1.69797 -0.75723,2.35216 1.23924,0.31103 2.97962,1.82153 3.86752,3.35667 C 405.94137,648.83283 416,671.45729 416,672.3974 c 0,0.33142 -1.27975,0.60259 -2.84388,0.60259 -2.67692,0 -3.13193,-0.67671 -7.75,-11.52596 -2.69837,-6.33928 -6.06561,-12.94242 -7.48278,-14.67365 -2.27563,-2.77996 -3.29787,-3.19986 -8.75,-3.59423 L 383,642.75961 v 15.12019 15.12019 h -3 -3 z m 22.31823,-4.97744 C 403.42623,634.42631 406,630.35595 406,625.8182 c 0,-7.11644 -5.63496,-10.81821 -16.46788,-10.81821 H 383 v 11.5 11.5 h 6.46607 c 3.8871,0 7.81661,-0.64402 9.85216,-1.61471 z M 436,641.49999 v -31.5 h 14.89301 c 15.04711,0 16.55606,0.368 15.37635,3.75 -0.31592,0.90568 -3.71857,1.25 -12.35269,1.25 H 442 v 11.5 11.5 h 11.5 11.5 v 2.5 2.5 H 453.5 442 v 12.5 12.5 h 12.5 12.5 v 2.5 2.5 H 451.5 436 Z m 52,0 v -31.5 h 3.76231 3.76231 l 15.98769,27.72716 15.98769,27.72715 0.26582,-27.72715 0.26582,-27.72716 H 531.01582 534 v 31.5 31.5 h -3.90719 -3.90719 l -15.17542,-26.25 c -8.34648,-14.4375 -15.58825,-26.6775 -16.09281,-27.2 C 494.36007,618.97286 494,629.2759 494,645.79999 v 27.2 h -3 -3 z m 68,0 v -31.5 h 3 3 v 31.5 31.5 h -3 -3 z m 29,0 v -31.5 h 3.77385 3.77385 l 15.97615,27.75 15.97615,27.75 0.26582,-27.75 0.26582,-27.75 H 628.01582 631 v 31.5 31.5 h -3.90719 -3.90719 l -15.17542,-26.25 c -8.34648,-14.4375 -15.58825,-26.6775 -16.09281,-27.2 C 591.36007,618.97286 591,629.2759 591,645.79999 v 27.2 h -3 -3 z M 190,588.35115 c -10.24407,-1.54268 -16.63465,-5.46249 -20.61464,-12.64447 l -2.88536,-5.20669 -0.32469,-25.75 -0.32469,-25.75 H 174.92531 184 v 23.03212 c 0,24.38303 0.47778,27.46652 4.86099,31.37197 3.03733,2.70626 10.16638,2.70742 13.8151,0.002 4.63772,-3.43843 5.20593,-6.85328 5.26747,-31.65634 l 0.0564,-22.74975 h 9.08827 9.08828 l -0.36898,25.25 c -0.40191,27.50336 -0.86641,30.03932 -6.61062,36.09158 -5.98876,6.30993 -18.21365,9.66357 -29.19695,8.00958 z m 85.70709,-0.38402 c -7.63884,-1.19461 -17.74343,-6.10556 -21.59984,-10.49777 -12.36221,-14.07978 -11.37585,-38.37995 2.02342,-49.84922 9.82494,-8.40979 29.81601,-11.53195 48.01767,-7.4993 l 4.64834,1.02986 -0.52251,6.17464 c -0.28738,3.39606 -0.83696,6.52248 -1.22129,6.9476 -0.38433,0.42512 -2.46595,0.0197 -4.62583,-0.90088 -5.29625,-2.25742 -17.42397,-2.2946 -23.92705,-0.0734 -9.60405,3.28043 -14.5,10.32494 -14.5,20.86325 0,12.66408 8.67254,21.042 22,21.25261 7.4414,0.11759 8,-0.43285 8,-7.88319 v -6.53134 h -5.5 -5.5 v -6.5 -6.5 h 14 14 v 18.89735 18.89734 l -6.25,1.05896 c -9.55916,1.61964 -22.60746,2.1199 -29.04291,1.11349 z m 135.51028,0.0164 c -10.60641,-1.46783 -10.21943,-1.11119 -9.53513,-8.78737 0.3283,-3.68288 0.72996,-6.8545 0.89256,-7.04803 0.1626,-0.19354 2.68729,0.45391 5.61042,1.43878 7.19338,2.42362 18.51095,2.49531 22.10738,0.14005 3.26775,-2.14002 3.6681,-6.76625 0.83106,-9.60329 -1.03198,-1.03198 -6.27,-3.34009 -11.64003,-5.12912 -11.86183,-3.95176 -16.68718,-7.77447 -18.4,-14.57669 -2.84097,-11.28251 2.80303,-20.51961 14.73287,-24.11219 6.18394,-1.86224 23.25217,-2.18553 28.6835,-0.54329 2.98124,0.90142 2.99778,0.94721 2.64506,7.32236 -0.19521,3.5284 -0.46559,6.53565 -0.60085,6.68279 -0.13525,0.14713 -3.11089,-0.46646 -6.61254,-1.36354 C 428.62447,529.5072 419,532.08028 419,537.99999 c 0,3.74669 2.03751,5.05868 13,8.37092 14.79278,4.46954 19.34891,9.21079 19.34311,20.12908 -0.005,10.08433 -4.61718,16.56849 -14.1853,19.94432 -5.26588,1.85791 -18.12429,2.62088 -25.94044,1.5392 z M 495,588.40296 c -10.62954,-1.82104 -16.63903,-5.5222 -20.61464,-12.69628 l -2.88536,-5.20669 -0.32469,-25.75 -0.32469,-25.75 H 479.92531 489 v 23.03212 c 0,24.38303 0.47778,27.46652 4.86099,31.37197 3.03733,2.70626 10.16638,2.70742 13.8151,0.002 4.63772,-3.43843 5.20593,-6.85328 5.26747,-31.65634 l 0.0564,-22.74975 h 9.09981 9.09981 l -0.39651,25.25 c -0.3343,21.28843 -0.6717,25.87758 -2.15049,29.25 -2.3812,5.4304 -6.98556,9.96734 -12.53436,12.35084 -4.57053,1.96329 -16.28906,3.37946 -21.11826,2.55213 z M 1,553.49999 v -34.5 h 9 9 v 13 13 h 11 11 v -13 -13 h 9 9 v 34.5 34.5 h -9 -9 v -15 -15 H 30 19 v 15 15 H 10 1 Z m 76.38169,28.2876 c 1.31605,-3.45818 6.734304,-17.7626 12.040574,-31.7876 5.30626,-14.025 10.14247,-26.75167 10.747106,-28.28149 l 1.09936,-2.7815 11.02487,0.2815 11.02487,0.28149 13.20252,34.25 13.20253,34.25 h -9.77843 -9.77842 l -2.4153,-7.25 -2.4153,-7.25 -13.41919,-0.2766 -13.419186,-0.2766 -2.59993,7.2766 -2.59993,7.2766 -9.15448,0.2876 -9.154474,0.2876 z m 39.23115,-35.22152 c -2.26206,-7.38865 -4.39429,-13.12615 -4.73828,-12.75 -0.34399,0.37616 -2.32262,5.85892 -4.39696,12.18392 -2.07434,6.325 -3.97853,12.0625 -4.23155,12.75 -0.34641,0.94129 1.75526,1.25 8.5098,1.25 h 8.96983 z M 332,553.49999 v -34.5 h 24 24 v 6.5 6.5 h -15 -15 v 7 7 h 14 14 v 6.5 6.5 h -14 -14 v 8 8 h 15.5 15.5 v 6.5 6.5 H 356.5 332 Z m 220,0 v -34.5 h 11.57386 11.57387 l 11.67613,23.75 11.67614,23.75 0.2681,-23.75 0.2681,-23.75 H 607.0181 615 v 34.5 34.5 h -11.25989 -11.25989 l -11.99011,-23.75 -11.99011,-23.75 -0.2681,23.75 -0.2681,23.75 H 559.9819 552 Z m 86,-0.14019 v -34.64019 l 18.75,0.54121 c 23.49701,0.67824 29.95376,2.34769 37.23302,9.62695 6.09317,6.09318 8.33481,12.54921 8.37212,24.11222 0.0341,10.55666 -2.09199,17.28341 -7.35089,23.25783 -7.5834,8.6152 -18.91914,11.6873 -43.25425,11.72236 l -13.75,0.0198 z m 31.06727,20.53234 c 6.20756,-1.33128 12.26926,-6.35178 13.99967,-11.59499 0.69063,-2.09261 0.982,-6.63282 0.70384,-10.96716 -0.40433,-6.30041 -0.91356,-7.94696 -3.43696,-11.11313 -3.99445,-5.01193 -9.21953,-7.40418 -17.45977,-7.99377 L 656,531.73126 v 21.63436 21.63437 h 3.95078 c 2.17293,0 6.27535,-0.49853 9.11649,-1.10785 z M 2.08803,493.60605 C 1.30347,492.66073 1.06444,455.97184 1.24619,364.39293 L 1.5,236.49999 h 106 106 l 0.25378,128.21279 c 0.24504,123.79491 0.19014,128.24686 -1.59338,129.20137 -1.1827,0.63296 -39.10213,0.9928 -105.41195,1.00033 -84.5792,0.01 -103.76562,-0.23026 -104.66042,-1.30843 z M 209.5,364.99999 v -124.5 l -100.89175,-0.2548 c -73.71965,-0.18618 -101.25755,0.0488 -102.25,0.87244 -1.88967,1.5683 -2.04105,245.79955 -0.15352,247.68709 0.92714,0.92714 24.48754,1.14604 102.25,0.95 L 209.5,489.49999 Z M 9.44347,484.71327 c -0.27157,-0.7077 -0.36994,-8.9202 -0.21861,-18.25 L 9.5,449.49999 l 98.25,-0.2549 98.25,-0.2549 v 18.5049 18.5049 h -98.03138 c -78.99468,0 -98.12727,-0.24987 -98.52515,-1.28672 z m 166.09643,-8.23509 c 8.90799,-2.27451 8.88445,-2.26196 7.45942,-3.97901 -0.67426,-0.81244 -1.58434,-1.25565 -2.02238,-0.98493 -1.03989,0.64269 -3.97694,-0.4944 -3.97694,-1.53968 0,-0.4463 1.4817,-1.72719 3.29267,-2.84643 3.23324,-1.99826 5.87037,-2.11403 12.95733,-0.56882 4.5239,0.98636 3.12298,-0.95976 -2.77215,-3.851 -6.93694,-3.40219 -10.42568,-3.40924 -16.18733,-0.0327 l -4.56562,2.67563 -4.75983,-2.67563 c -2.61791,-1.47159 -5.36461,-2.67562 -6.10379,-2.67562 -1.87193,0 -11.9424,7.05972 -11.37654,7.97531 0.25408,0.4111 2.75467,0.29413 5.55688,-0.25994 4.2471,-0.83975 5.35915,-0.74317 6.68272,0.5804 1.45038,1.45038 1.35794,1.64548 -1.06828,2.25442 -4.77008,1.19721 -2.91154,3.41647 4.84394,5.78409 6.3107,1.92655 5.11428,1.91225 12.0399,0.14391 z M 56.29793,475.32985 c 3.69863,-0.45754 4.7278,-0.96429 4.49181,-2.2117 -0.19102,-1.00973 -1.52505,-1.73598 -3.54793,-1.93152 -3.81491,-0.36875 -4.36023,-2.71993 -0.98728,-4.25675 1.69529,-0.77243 3.80371,-0.54507 8.5,0.91658 3.435,1.06909 6.24547,1.59441 6.24547,1.16736 0,-1.01435 -5.60778,-5.25784 -9.80559,-7.42004 -3.22207,-1.65962 -3.42107,-1.6381 -7.87595,0.85178 -2.5137,1.40494 -4.94806,2.55443 -5.40968,2.55443 -0.46163,0 -2.99245,-1.36836 -5.62405,-3.0408 -3.40216,-2.16215 -5.50711,-2.87008 -7.28473,-2.44997 -1.94813,0.4604 -8.19888,4.14139 -13.91666,8.19535 -0.22917,0.16248 -0.14661,0.56549 0.18347,0.89557 0.33008,0.33008 3.58663,-0.14884 7.23678,-1.06426 5.40883,-1.35648 6.92069,-1.42866 8.17203,-0.39014 1.34999,1.1204 1.20538,1.5374 -1.1976,3.45347 -3.14089,2.50447 -2.57143,4.39389 1.331,4.41609 1.48004,0.008 3.36598,0.47794 4.19098,1.04337 0.82767,0.56725 3.51701,0.76733 6,0.44638 2.475,-0.31992 6.65907,-0.84876 9.29793,-1.1752 z M 113.5,475.99999 c 0.33992,-0.55 2.31648,-1 4.39235,-1 2.07587,0 4.04331,-0.26899 4.37208,-0.59777 1.24515,-1.24514 -0.57539,-3.40223 -2.87142,-3.40223 -3.18286,0 -3.13717,-2.77512 0.0589,-3.57729 1.34855,-0.33846 4.75271,0.14881 7.56479,1.08284 2.81207,0.93402 5.38371,1.42737 5.71475,1.09633 0.33104,-0.33103 0.41438,-0.74318 0.18522,-0.91588 -0.22917,-0.1727 -2.48802,-1.9727 -5.01966,-4 -5.51877,-4.41934 -8.02384,-4.58296 -15.32712,-1.00109 l -5.47443,2.68491 -4.93306,-2.68491 c -6.284906,-3.42068 -7.833556,-3.37239 -12.969206,0.40441 -4.93092,3.62623 -4.73012,5.20337 0.43634,3.42723 6.28282,-2.15993 11.039566,0.92564 6.41766,4.16295 -2.65265,1.85799 -1.69537,3.18934 3.11016,4.32549 4.888976,1.15588 13.627066,1.15284 14.342646,-0.005 z M 10.26167,444.18287 C 9.2946,443.56866 9.01561,425.88344 8.98803,363.44819 l -0.0353,-79.9482 98.52365,-0.25488 98.52364,-0.25487 v 81.00487 81.00488 l -97.25,-0.0153 c -53.4875,-0.008 -97.80725,-0.36924 -98.48833,-0.80181 z M 202,363.99999 v -77 H 107.5 13 v 77 77 h 94.5 94.5 z m -93.05338,72.55 C 108.38968,435.99106 108,422.0978 108,402.79999 c 0,-30.55187 0.11995,-32.80352 1.75,-32.85133 0.9625,-0.0282 13.225,-0.0708 27.25,-0.0946 l 25.5,-0.0433 0.29718,6.07378 0.29717,6.07379 -20.29717,0.27085 -20.29718,0.27081 -0.29569,6.75 -0.29569,6.75 h 13.09341 13.0934 l -0.29771,6.25 -0.29772,6.25 -11.12275,0.022 c -7.84225,0.0155 -11.60268,0.42025 -12.75,1.37244 C 122.27948,411.01293 122,413.44132 122,424.03361 v 12.78874 l -6.05338,0.33882 c -3.32936,0.18635 -6.47936,-0.0887 -7,-0.61118 z m -18.237656,-0.17437 c -0.38993,-0.38993 -0.70896,-6.43582 -0.70896,-13.43531 0,-10.68227 -0.25406,-12.82384 -1.58179,-13.33333 -0.86998,-0.33385 -5.996844,-0.60699 -11.393014,-0.60699 -10.99348,0 -11.0252,-0.0215 -11.0252,-7.45934 0,-6.07789 1.22804,-6.72299 12.23936,-6.42942 5.15215,0.13736 9.905994,-0.083 10.564094,-0.48977 1.63797,-1.01231 1.53575,-10.09507 -0.12916,-11.47682 -0.83704,-0.69468 -8.485774,-1.20058 -20.750004,-1.37245 L 48.5,381.49999 l -0.2999,-5.75 c -0.2185,-4.18932 0.0529,-5.76131 1,-5.79165 12.63017,-0.40471 53.38801,0.22976 53.99885,0.8406 0.45608,0.45608 0.7104,15.4254 0.56515,33.26515 l -0.2641,32.4359 -6.041036,0.29229 c -3.32257,0.16076 -6.36007,-0.0267 -6.75,-0.41666 z M 48.65943,364.25795 c -0.44714,-0.72349 -0.95919,-8.21744 -0.75216,-11.00796 0.0705,-0.95009 4.39584,-1.25 18.02763,-1.25 9.86419,0 19.111734,-0.44743 20.550074,-0.99429 2.45733,-0.93427 2.59707,-1.3417 2.3151,-6.75 l -0.30007,-5.75571 -11.500004,-0.5 -11.5,-0.5 -0.29772,-6.25 -0.29772,-6.25 h 10.84772 c 7.10378,0 11.261884,-0.41416 12.047724,-1.2 0.83184,-0.83184 1.2,-6.03663 1.2,-16.96482 0,-14.27528 0.17357,-15.85771 1.83706,-16.74798 2.0812,-1.11382 10.006686,-0.64345 11.322086,0.67195 0.47641,0.47641 0.74799,17.26299 0.60352,37.30352 l -0.26267,36.43733 -26.68097,0.2662 c -14.67453,0.14642 -26.89635,-0.0823 -27.1596,-0.50824 z m 60.02323,0.0914 C 108.3072,363.97385 108,347.07018 108,326.78561 v -36.88105 l 6.25,0.29771 6.25,0.29772 0.5,17 0.5,17 13,0.5 13,0.5 0.31579,4.41979 c 0.65197,9.12482 0.85851,8.98335 -13.57737,9.30042 l -12.73842,0.27979 -0.31365,4.96687 c -0.46938,7.4331 -0.16992,7.53313 22.5525,7.53313 h 19.35658 l -0.29771,6.25 -0.29772,6.25 -26.56734,0.26599 c -14.61204,0.14629 -26.87454,-0.0412 -27.25,-0.41667 z M 8.48364,276.75489 c -0.30631,-1.2402 -0.42794,-9.0049 -0.27028,-17.2549 l 0.28664,-15 98.77363,-0.25488 98.77364,-0.25488 -0.27364,17.25488 -0.27363,17.25488 -98.22972,0.2549 -98.22972,0.25489 z m 69.1547,-4.19324 3.43834,-3.43834 -0.28834,-9.31166 L 80.5,250.49999 77.25,250.18663 74,249.87327 v 8.44092 c 0,6.28308 -0.38346,8.75915 -1.5,9.6858 -2.92486,2.42741 -4.39768,-0.49262 -4.71101,-9.34009 L 67.5,250.49999 h -3 -3 l -0.28747,9.24573 c -0.32493,10.45041 0.48059,12.78005 5.11621,14.79651 5.05031,2.19685 7.57415,1.75487 11.3096,-1.98058 z m 22.036814,1.09027 c 1.563176,-1.53229 2.037546,-9.33923 0.651686,-10.72509 -0.602886,-0.60289 -2.160566,-0.94557 -3.461496,-0.7615 -1.74712,0.24719 -2.44954,1.06892 -2.68748,3.14395 -0.17718,1.5451 -0.82765,2.64078 -1.44548,2.43484 -1.57832,-0.52611 -2.8464,-5.73052 -2.17262,-8.91679 0.46454,-2.19673 1.27873,-2.79321 4.57234,-3.34966 7.448356,-1.25839 5.514466,-6.47768 -2.40015,-6.47768 -5.08376,0 -9.686804,4.29594 -9.828844,9.17308 -0.3137,10.77129 1.057514,15.04342 5.405194,16.84035 2.64071,1.09142 9.73085,0.24218 11.36685,-1.3615 z m 35.498846,-0.3094 c 1.0043,-0.90888 1.826,-2.4562 1.826,-3.4385 0,-0.9823 0.45,-2.06411 1,-2.40403 0.55,-0.33992 1,0.0584 1,0.88522 0,2.99361 4.37781,6.72164 8.55042,7.2813 3.38992,0.45469 4.56724,0.10536 7.24844,-2.15072 L 158,270.8222 v -10.47446 -10.47447 l -3.25,0.31336 -3.25,0.31336 -0.29571,7.95262 c -0.30512,8.2056 -1.30787,10.8286 -3.7774,9.88095 C 146.37381,267.92946 146,265.8993 146,260.58413 c 0,-8.20432 -1.33332,-10.95457 -5.05603,-10.42911 -2.31037,0.32611 -2.46122,0.75495 -2.75953,7.84497 -0.30514,7.25241 -0.3595,7.39702 -1.64679,4.38065 -1.03237,-2.41905 -2.15457,-3.2738 -4.99865,-3.80736 -4.44705,-0.83427 -4.23251,-2.94079 0.34535,-3.39092 3.66781,-0.36066 4.97269,-2.44477 3.01078,-4.80873 -1.93745,-2.33448 -10.77529,-1.18465 -13.14513,1.71022 -3.9518,4.82731 -1.29383,11.74716 4.96118,12.91614 4.04695,0.75632 3.30993,2.46078 -1.21118,2.80102 -2.23246,0.168 -4.55236,1.02575 -5.25,1.94113 -0.71576,0.93914 -1.25,1.13103 -1.25,0.44898 0,-0.72298 -1.5721,-1.19113 -4,-1.19113 -3.33333,0 -4,-0.33333 -4,-2 0,-1.40287 0.67177,-2.00457 2.25,-2.01531 5.72804,-0.039 6.62012,-5.25401 0.99181,-5.79805 C 111.91593,258.96181 111,258.36973 111,257.09106 c 0,-1.32124 0.71128,-1.73561 2.75,-1.60203 4.06571,0.26638 5.25,-0.43202 5.25,-3.09603 0,-2.65853 0.0943,-2.6209 -7.25,-2.89326 -8.58238,-0.31827 -8.75,-0.082 -8.75,12.33543 0,7.03931 0.4153,11.18012 1.2,11.96482 1.8619,1.8619 13.71737,1.5789 14.45567,-0.34507 0.49392,-1.28714 0.84397,-1.18661 2.09692,0.60223 1.33323,1.90345 2.13381,2.07863 7.04972,1.54259 3.05013,-0.33259 6.36739,-1.34834 7.37169,-2.25722 z m 64.8001,0.18504 c 1.8684,-1.98882 2.41494,-3.90925 2.79414,-9.81795 0.53682,-8.36472 -1.24186,-13.35862 -5.03643,-14.14054 -6.91441,-1.42479 -11.964,-1.62127 -13.29424,-0.51727 -1.79456,1.48936 -2.02538,19.56399 -0.29824,23.35465 1.29505,2.84232 2.50866,3.31459 8.93636,3.47754 3.66349,0.0929 5.03874,-0.3769 6.89841,-2.35643 z M 191,260.99999 c 0,-4.25641 0.37778,-6 1.3,-6 2.28404,0 3.7,2.29614 3.7,6 0,3.70386 -1.41596,6 -3.7,6 -0.92222,0 -1.3,-1.74359 -1.3,-6 z M 19.96482,273.06573 c 0.56935,-1.06384 1.03518,-3.31384 1.03518,-5 0,-2.60346 0.37698,-3.06574 2.5,-3.06574 2.08334,0 2.52084,0.5 2.625,3 0.23093,5.54223 1.12883,7 4.31157,7 4.04608,0 4.65135,-1.96918 4.34718,-14.14313 L 34.5,249.49999 31.60851,249.16991 c -3.38673,-0.3866 -4.57187,1.05317 -4.59319,5.58008 -0.0139,2.94104 -0.30051,3.25 -3.01532,3.25 -2.82476,0 -3,-0.22971 -3,-3.93261 0,-4.25948 -2.05098,-5.82076 -6,-4.56739 -1.84362,0.58514 -2,1.51303 -2,11.86739 0,7.40314 0.40911,11.64172 1.2,12.43261 1.80186,1.80186 4.59814,1.4457 5.76482,-0.73426 z M 43,271.99999 c 0.97007,-2.34195 1.86845,-3 4.09564,-3 2.15859,0 3.2306,0.73019 4.40436,3 1.52778,2.9544 5.63418,4.20995 6.92708,2.11798 0.29981,-0.48511 -1.13613,-5.97624 -3.19098,-12.20252 -3.36029,-10.18178 -4.01242,-11.39194 -6.4831,-12.0307 -4.38175,-1.13283 -6.33193,1.47443 -9.70276,12.97195 -1.67001,5.69619 -2.78793,10.75869 -2.48429,11.25 0.30365,0.49131 1.59593,0.89329 2.87175,0.89329 1.63459,0 2.68665,-0.88599 3.5623,-3 z m 2.01532,-9.75 c 0.008,-0.9625 0.45842,-2.425 1,-3.25 0.87527,-1.33333 1.09409,-1.33333 1.96937,0 1.67087,2.54527 1.18744,5 -0.98469,5 -1.24393,0 -1.99421,-0.66156 -1.98468,-1.75 z m 121.78468,11.55 c 0.66,-0.66 1.20291,-2.7975 1.20646,-4.75 l 0.006,-3.55 4.11698,4.80338 c 2.91707,3.40342 4.73677,4.71495 6.24354,4.5 2.02524,-0.28892 2.13993,-0.91403 2.40694,-13.119 l 0.28036,-12.81563 -3.28036,0.31563 c -3.20688,0.30855 -3.28715,0.43354 -3.58309,5.57889 l -0.30272,5.26328 -2.74282,-5.26328 c -2.17307,-4.16997 -3.31715,-5.33021 -5.50775,-5.58553 -4.94489,-0.57639 -5.64354,1.00124 -5.64354,12.7447 0,10.86162 0.67778,13.07756 4,13.07756 0.88,0 2.14,-0.54 2.8,-1.2 z m 192.73943,217.54229 c -3.27831,-1.40157 -8.89805,-2.83946 -12.48832,-3.1953 -5.9736,-0.59207 -6.64812,-0.89845 -7.94568,-3.60916 -1.22124,-2.55124 -1.22286,-3.79975 -0.0117,-9 2.49099,-10.69523 1.81453,-19.58929 -2.45257,-32.24613 l -3.77875,-11.20829 -4.68121,1.85226 c -42.72394,16.90497 -47.43413,19.12499 -50.81341,23.9496 -1.66092,2.37129 -3.59027,16.21096 -2.78538,19.98014 0.30944,1.44902 1.2624,4.29789 2.11771,6.33081 1.90289,4.52283 1.17792,6.80378 -2.16248,6.80378 -1.79204,0 -3.35776,-1.14943 -5.3932,-3.95927 -3.46018,-4.77665 -4.39929,-7.09657 -7.20153,-17.79022 -1.4797,-5.6467 -3.27008,-9.70102 -5.67455,-12.85006 -3.16323,-4.14276 -3.45223,-5.04243 -2.90419,-9.04083 0.33473,-2.44215 1.04916,-5.26346 1.58763,-6.26959 1.53466,-2.86755 7.34218,-5.09701 15.78951,-6.06147 9.28737,-1.06037 11.11369,-1.70629 18.25867,-6.45761 3.025,-2.01158 13.0375,-7.4762 22.25,-12.14359 l 16.75,-8.48617 v -5.79653 c 0,-5.74091 1.91566,-21.10676 4.06462,-32.60299 1.28524,-6.87568 0.65497,-13.93571 -2.19094,-24.54167 -2.0656,-7.69793 -4.90359,-29.49533 -6.83544,-52.5 -0.60043,-7.15 -1.33009,-14.48935 -1.62147,-16.30966 -0.73515,-4.59262 -6.34427,-10.42365 -14.2448,-14.80834 -8.24649,-4.5767 -15.61024,-9.82479 -29.17197,-20.79067 -5.775,-4.6696 -13.875,-10.51368 -18,-12.98684 -4.125,-2.47316 -11.775,-8.60733 -17,-13.63148 -10.41024,-10.01009 -32.93289,-29.1351 -45.5,-38.63613 -11.79688,-8.91872 -18.32717,-12.97772 -24.62811,-15.30796 -3.09546,-1.14477 -9.39546,-4.39471 -14,-7.22208 -4.60452,-2.82737 -11.52187,-6.93657 -15.37187,-9.13154 -13.906,-7.92814 -14.65295,-8.52099 -13.48519,-10.70297 0.89205,-1.66682 2.11088,-1.97233 7.86858,-1.97233 3.74717,0 11.04384,0.89295 16.21482,1.98433 5.17098,1.09139 11.70919,1.99139 14.52935,2 5.6399,0.0172 6.32323,0.52474 9.70052,7.20447 3.17987,6.28928 10.17267,10.93949 27.67192,18.40184 26.7558,11.40969 39.70792,19.56116 56.88548,35.80109 14.02622,13.26061 20.40016,16.9037 33.58118,19.19366 5.01076,0.87052 14.56221,3.72038 21.64983,6.45963 l 12.68317,4.90185 4.71674,-1.60716 c 5.81657,-1.9819 14.83023,-1.34001 22.58809,1.60857 8.96951,3.40911 14.69509,2.50894 20.73314,-3.25961 5.34295,-5.10449 6.89974,-9.37392 9.50118,-26.05656 2.25345,-14.45103 2.74928,-16.16002 6.49563,-22.38869 C 399.39359,167.66338 401,163.8751 401,160.70363 c 0,-1.19139 -2.47845,-7.36526 -5.50766,-13.71971 -6.80568,-14.27642 -8.35513,-20.83892 -6.73919,-28.54294 1.53534,-7.31979 3.86572,-10.31724 10.83845,-13.94098 4.4503,-2.31283 5.95655,-3.68717 6.57588,-5.999999 1.58337,-5.912971 4.03524,-41.109701 3.4831,-50 -0.36721,-5.912649 -1.42503,-11.401273 -3.08367,-16 -1.78816,-4.957811 -2.53088,-9.066467 -2.54582,-14.08322 C 403.99899,11.005234 405.769,0 406.98306,0 c 1.67432,0 3.83247,3.9541091 5.45799,10 0.96119,3.575 2.6348,8.525 3.71914,11.000001 1.78696,4.07875 2.09412,4.334223 3.2812,2.729085 0.72033,-0.974004 1.60143,-3.595423 1.95802,-5.825378 0.71044,-4.442843 2.59619,-4.862995 3.72333,-0.829569 1.32389,4.737535 0.84307,10.404838 -1.8097,21.330265 l -2.68697,11.066244 1.75803,21.514676 c 2.9482,36.080066 2.24868,32.609426 7.15168,35.482776 8.50763,4.98579 12.21636,11.77975 8.47356,15.52255 -1.34447,1.34447 -1.91984,2.79743 -1.51931,3.83666 0.35457,0.91997 1.26468,4.32542 2.02245,7.56765 1.15801,4.95464 1.16342,6.51717 0.0339,9.79556 -0.73913,2.14533 -1.11388,5.61522 -0.8328,7.71088 0.68605,5.11484 -0.89683,7.72278 -5.17435,8.52525 -4.05795,0.76128 -5.02007,2.21925 -5.89705,8.9363 l -0.63491,4.86297 3.24636,-0.63428 c 1.78549,-0.34885 10.44635,-1.00751 19.24635,-1.46369 15.85973,-0.82213 21.59539,-2.06391 24.1249,-5.22306 0.63555,-0.79375 1.39406,-7.49503 1.74366,-15.4049 0.34032,-7.7 0.90445,-19.41705 1.25363,-26.03789 0.57081,-10.82312 0.4324,-12.43772 -1.37162,-15.99999 -1.10357,-2.17916 -2.34288,-5.51892 -2.75402,-7.42168 -0.94153,-4.357476 -0.74642,-22.389094 0.2926,-27.040429 0.701,-3.138141 1.16149,-3.531827 4.45401,-3.807841 5.22504,-0.43802 7.28656,1.058623 9.34569,6.784852 1.21654,3.383035 2.36769,5.022989 3.52585,5.022989 1.2561,0 2.01146,1.360935 2.80246,5.049221 1.42657,6.651908 1.3659,9.890304 -0.27308,14.575048 -1.70347,4.86908 -1.26884,12.29258 1.90315,32.50605 1.34904,8.59668 2.45279,16.86166 2.45279,18.36663 0,2.35501 0.31353,2.64975 2.25,2.11519 1.2375,-0.34161 9.9,-2.20325 19.25,-4.13697 20.83817,-4.30965 27.31704,-6.37144 39.5,-12.57023 7.11234,-3.61882 12.01333,-5.32004 19.5,-6.76881 12.33572,-2.38712 24.5,-3.48722 24.5,-2.2157 0,1.84846 -5.39595,5.1215 -11.60503,7.03928 -7.39431,2.28388 -11.52707,4.2896 -13.34025,6.47434 -1.72509,2.07861 -0.28282,3.79301 5.57756,6.62997 2.96524,1.43545 4.36562,2.70835 4.15914,3.78052 -0.40338,2.09456 -4.42794,1.96124 -12.29142,-0.40717 -3.66925,-1.10515 -9.10766,-1.79915 -14,-1.78654 -7.07168,0.0182 -9.11784,0.49053 -17.63331,4.07021 -5.29831,2.22728 -14.52331,6.88176 -20.5,10.34327 -5.97668,3.46152 -14.12898,8.12563 -18.11623,10.36468 l -7.24954,4.071 -4.6e-4,9.25 c -2.5e-4,5.0875 0.20456,9.25 0.45513,9.25 0.25058,0 2.0454,-1.07888 3.98851,-2.3975 11.85718,-8.04651 31.18174,-4.92173 38.57315,6.23726 3.43682,5.18865 3.49864,5.4872 1.48275,7.16024 -2.58408,2.1446 -1.77653,7.11745 2.02385,12.46276 l 3.52384,4.95636 -2.60272,1.36371 c -1.89841,0.99467 -2.39817,1.81743 -1.84683,3.04043 0.41574,0.92221 0.83003,3.70174 0.92063,6.17674 0.0906,2.475 0.75734,5.73567 1.48165,7.24594 1.1411,2.37935 1.08894,2.99784 -0.39071,4.63284 -0.9392,1.03779 -3.8231,2.68731 -6.40867,3.66559 -2.58557,0.97828 -5.73654,2.44782 -7.00215,3.26566 -3.08033,1.9905 -5.49526,6.87302 -4.78975,9.68398 0.54782,2.18268 0.73432,2.22263 4.43096,0.94904 2.12249,-0.73126 9.66426,-1.63743 16.75949,-2.01372 7.09522,-0.37629 14.70041,-1.31583 16.90041,-2.08787 2.2,-0.77204 10.75,-2.02537 19,-2.78518 15.48564,-1.4262 17.87317,-1.98328 25.5,-5.9499 6.15786,-3.20263 11.1045,-4.26285 28.32815,-6.07159 16.90043,-1.7748 20.30695,-2.44973 30.59149,-6.06109 6.71236,-2.357 29.48077,-6.40106 36.33036,-6.45289 6.55,-0.0496 1.18802,3.50015 -14.99163,9.9247 -4.5329,1.7999 -8.01045,3.64661 -7.7279,4.10379 0.28256,0.45719 1.87676,0.3561 3.54268,-0.22465 1.66592,-0.58074 3.27002,-0.81482 3.56466,-0.52017 1.37822,1.37822 -5.37143,3.9676 -13.81377,5.29939 -12.7958,2.01856 -14.14732,2.49858 -32.32404,11.48048 -15.99569,7.90416 -24.70524,10.91565 -31.56927,10.91565 -2.02697,0 -6.93447,1.50644 -11.0399,3.38888 -11.47266,5.26051 -24.64498,9.88006 -46.15547,16.18679 l -19.76464,5.79486 -2.91391,4.56473 c -1.60265,2.51061 -3.86337,6.98782 -5.02383,9.94936 -2.16341,5.52113 -4.34504,8.92507 -11.80846,18.4244 -5.10308,6.49514 -9.91824,17.69098 -7.60861,17.69098 0.80702,0 7.33336,-0.71518 14.50299,-1.58929 9.15749,-1.11647 18.88845,-1.48416 32.7084,-1.23592 23.07351,0.41446 24.68632,0.90694 27.92272,8.52634 2.96581,6.98236 3.53032,13.49263 2.33227,26.89733 -3.48215,38.96097 -5.16188,59.74783 -5.21978,64.59538 -0.083,6.94847 1.81912,10.72532 10.1787,20.21089 5.58824,6.34094 7.82399,8.01561 16.58746,12.42464 9.98529,5.02375 11.8659,6.71822 10.73296,9.67063 -0.79967,2.0839 -12.65995,1.99648 -23.50116,-0.17322 -5.78734,-1.15825 -12.58895,-1.61652 -22.09943,-1.48897 -12.56896,0.16857 -13.91023,0.013 -15.75,-1.82677 -2.7416,-2.7416 -2.53688,-5.98157 1.07744,-17.05157 3.07828,-9.42825 3.08466,-9.49412 1.93331,-19.95947 -0.63534,-5.775 -2.70915,-16.52145 -4.60847,-23.881 -4.76329,-18.45702 -5.69171,-30.2067 -3.24908,-41.119 0.27282,-1.21882 -0.69523,-1.44422 -5.16424,-1.20246 -6.06278,0.32799 -13.64872,2.16004 -31.01348,7.48994 -13.20203,4.0522 -26.23887,6.22391 -32.34127,5.38748 -2.31402,-0.31717 -6.21835,-1.4889 -8.67628,-2.60385 -6.41451,-2.90971 -8.95029,-2.60251 -19.2648,2.33388 -11.82382,5.65871 -26.49191,10.60621 -44.70417,15.07856 -7.975,1.95841 -17.875,5.11212 -22,7.00825 -5.73055,2.63415 -10.44908,3.87289 -20,5.25053 l -12.5,1.80302 0.0877,11.47732 c 0.0967,12.65702 1.88755,20.72997 5.95406,26.84085 3.29162,4.94644 13.49449,13.89088 22.23878,19.49582 11.09993,7.11488 9.99379,8.90086 -5.74663,9.27852 -9.39075,0.22531 -11.18079,-0.0238 -16.4945,-2.29557 z m 2.69262,-93.90242 c 4.48958,-1.16337 10.12117,-4.26899 22.14434,-12.2118 8.86799,-5.85843 18.1931,-11.79387 20.72247,-13.18988 11.6962,-6.45534 23.92362,-12.50899 29.40114,-14.55616 5.93635,-2.21864 6.02279,-2.30761 8.14784,-8.38667 1.18131,-3.37933 2.75631,-6.9164 3.5,-7.86015 0.74369,-0.94375 3.60953,-4.42026 6.36854,-7.72556 10.58503,-12.68094 11.82628,-17.32351 12.96964,-48.50965 0.65124,-17.76324 1.08899,-21.72839 3.09664,-28.04966 1.00626,-3.1683 1.55734,-10.91058 1.81504,-25.5 0.20353,-11.52269 0.91707,-25.59308 1.58564,-31.26755 0.66857,-5.67446 1.02235,-10.51043 0.78618,-10.7466 -0.4457,-0.4457 -4.50784,0.65208 -21.01952,5.68047 -11.25303,3.42695 -10.67278,2.22579 -8.5991,17.80088 1.55454,11.67588 0.4987,13.85425 -10.11873,20.87659 -9.33063,6.17124 -23.42794,19.20844 -28.70717,26.54841 -5.92573,8.23882 -16.45567,20.0903 -18.58197,20.91406 -1.07412,0.41613 -3.16014,2.04891 -4.6356,3.62839 -1.47546,1.57949 -5.45704,4.2723 -8.84797,5.98403 -6.88059,3.47332 -6.70889,3.08989 -7.67149,17.13098 -0.83605,12.19521 -2.61478,25.86338 -4.66671,35.86008 C 358.86457,349.00811 358,356.65954 358,360.86325 c 0,4.64523 -0.78447,10.38624 -2,14.63674 -2.22669,7.78631 -2.8247,23.5 -0.89434,23.5 0.60811,0 3.81498,-0.70206 7.12639,-1.56013 z"
     style="fill: #69f"/>
</svg>
