<?xml version="1.0" encoding="UTF-8" standalone="no"?>
<!DOCTYPE svg PUBLIC "-//W3C//DTD SVG 1.1//EN"
 "http://www.w3.org/Graphics/SVG/1.1/DTD/svg11.dtd">
<!-- Generated by graphviz version 2.40.1 (20161225.0304)
 -->
<!-- Title: dependencies Pages: 1 -->
<svg width="1532pt" height="211pt"
 viewBox="0.00 0.00 1532.00 211.00" xmlns="http://www.w3.org/2000/svg" xmlns:xlink="http://www.w3.org/1999/xlink">
<g id="graph0" class="graph" transform="scale(1 1) rotate(0) translate(4 207)">
<title>dependencies</title>
<polygon fill="#ffffff" stroke="transparent" points="-4,4 -4,-207 1528,-207 1528,4 -4,4"/>
<text text-anchor="start" x="741.0091" y="-42.4" font-family="sans-serif" font-weight="bold" font-size="14.00" fill="#000000">Legend</text>
<polygon fill="#ffffb3" stroke="transparent" points="528,-10 528,-30 548,-30 548,-10 528,-10"/>
<text text-anchor="start" x="551.629" y="-15.4" font-family="sans-serif" font-size="14.00" fill="#000000"> &#160;Declarations</text>
<polygon fill="#8dd3c7" stroke="transparent" points="641,-10 641,-30 661,-30 661,-10 641,-10"/>
<text text-anchor="start" x="664.7251" y="-15.4" font-family="sans-serif" font-size="14.00" fill="#000000"> &#160;Module</text>
<polygon fill="#80b1d3" stroke="transparent" points="727,-10 727,-30 747,-30 747,-10 727,-10"/>
<text text-anchor="start" x="750.7812" y="-15.4" font-family="sans-serif" font-size="14.00" fill="#000000"> &#160;Bootstrap</text>
<polygon fill="#fdb462" stroke="transparent" points="824,-10 824,-30 844,-30 844,-10 824,-10"/>
<text text-anchor="start" x="847.6732" y="-15.4" font-family="sans-serif" font-size="14.00" fill="#000000"> &#160;Providers</text>
<polygon fill="#fb8072" stroke="transparent" points="920,-10 920,-30 940,-30 940,-10 920,-10"/>
<text text-anchor="start" x="943.7258" y="-15.4" font-family="sans-serif" font-size="14.00" fill="#000000"> &#160;Exports</text>
<g id="clust1" class="cluster">
<title>cluster_EventModule</title>
<polygon fill="none" stroke="#000000" stroke-dasharray="1,5" points="8,-70 8,-195 1516,-195 1516,-70 8,-70"/>
</g>
<g id="clust2" class="cluster">
<title>cluster_EventModule_declarations</title>
<polygon fill="none" stroke="#000000" points="294,-78 294,-130 1508,-130 1508,-78 294,-78"/>
</g>
<g id="clust11" class="cluster">
<title>cluster_EventModule_imports</title>
<polygon fill="none" stroke="#000000" points="16,-78 16,-130 286,-130 286,-78 16,-78"/>
</g>
<!-- ContextMenuComponent -->
<g id="node1" class="node">
<title>ContextMenuComponent</title>
<polygon fill="#ffffb3" stroke="#000000" points="1500.3243,-122 1341.6757,-122 1341.6757,-86 1500.3243,-86 1500.3243,-122"/>
<text text-anchor="middle" x="1421" y="-99.8" font-family="Times,serif" font-size="14.00" fill="#000000">ContextMenuComponent</text>
</g>
<!-- EventModule -->
<g id="node9" class="node">
<title>EventModule</title>
<polygon fill="#8dd3c7" stroke="#000000" points="820.2078,-187 817.2078,-191 796.2078,-191 793.2078,-187 727.7922,-187 727.7922,-151 820.2078,-151 820.2078,-187"/>
<text text-anchor="middle" x="774" y="-164.8" font-family="Times,serif" font-size="14.00" fill="#000000">EventModule</text>
</g>
<!-- ContextMenuComponent&#45;&gt;EventModule -->
<g id="edge1" class="edge">
<title>ContextMenuComponent&#45;&gt;EventModule</title>
<path fill="none" stroke="#000000" d="M1421,-122.0109C1421,-144.4852 1421,-180 1421,-180 1421,-180 830.271,-180 830.271,-180"/>
<polygon fill="#000000" stroke="#000000" points="830.271,-176.5001 820.271,-180 830.271,-183.5001 830.271,-176.5001"/>
</g>
<!-- DisplayComponent -->
<g id="node2" class="node">
<title>DisplayComponent</title>
<polygon fill="#ffffb3" stroke="#000000" points="1323.3795,-122 1198.6205,-122 1198.6205,-86 1323.3795,-86 1323.3795,-122"/>
<text text-anchor="middle" x="1261" y="-99.8" font-family="Times,serif" font-size="14.00" fill="#000000">DisplayComponent</text>
</g>
<!-- DisplayComponent&#45;&gt;EventModule -->
<g id="edge2" class="edge">
<title>DisplayComponent&#45;&gt;EventModule</title>
<path fill="none" stroke="#000000" d="M1261,-122.1289C1261,-142.5724 1261,-173 1261,-173 1261,-173 830.2548,-173 830.2548,-173"/>
<polygon fill="#000000" stroke="#000000" points="830.2549,-169.5001 820.2548,-173 830.2548,-176.5001 830.2549,-169.5001"/>
</g>
<!-- EventComponent -->
<g id="node3" class="node">
<title>EventComponent</title>
<polygon fill="#ffffb3" stroke="#000000" points="1180.9902,-122 1067.0098,-122 1067.0098,-86 1180.9902,-86 1180.9902,-122"/>
<text text-anchor="middle" x="1124" y="-99.8" font-family="Times,serif" font-size="14.00" fill="#000000">EventComponent</text>
</g>
<!-- EventComponent&#45;&gt;EventModule -->
<g id="edge3" class="edge">
<title>EventComponent&#45;&gt;EventModule</title>
<path fill="none" stroke="#000000" d="M1124,-122.2667C1124,-140.5552 1124,-166 1124,-166 1124,-166 830.1163,-166 830.1163,-166"/>
<polygon fill="#000000" stroke="#000000" points="830.1163,-162.5001 820.1163,-166 830.1163,-169.5001 830.1163,-162.5001"/>
</g>
<!-- FullscreenComponent -->
<g id="node4" class="node">
<title>FullscreenComponent</title>
<polygon fill="#ffffb3" stroke="#000000" points="1048.6456,-122 909.3544,-122 909.3544,-86 1048.6456,-86 1048.6456,-122"/>
<text text-anchor="middle" x="979" y="-99.8" font-family="Times,serif" font-size="14.00" fill="#000000">FullscreenComponent</text>
</g>
<!-- FullscreenComponent&#45;&gt;EventModule -->
<g id="edge4" class="edge">
<title>FullscreenComponent&#45;&gt;EventModule</title>
<path fill="none" stroke="#000000" d="M979,-122.0091C979,-138.0494 979,-159 979,-159 979,-159 830.2616,-159 830.2616,-159"/>
<polygon fill="#000000" stroke="#000000" points="830.2616,-155.5001 820.2616,-159 830.2616,-162.5001 830.2616,-155.5001"/>
</g>
<!-- ListComponent -->
<g id="node5" class="node">
<title>ListComponent</title>
<polygon fill="#ffffb3" stroke="#000000" points="891.6109,-122 788.3891,-122 788.3891,-86 891.6109,-86 891.6109,-122"/>
<text text-anchor="middle" x="840" y="-99.8" font-family="Times,serif" font-size="14.00" fill="#000000">ListComponent</text>
</g>
<!-- ListComponent&#45;&gt;EventModule -->
<g id="edge5" class="edge">
<title>ListComponent&#45;&gt;EventModule</title>
<path fill="none" stroke="#000000" d="M804.2742,-122.1061C804.2742,-122.1061 804.2742,-140.991 804.2742,-140.991"/>
<polygon fill="#000000" stroke="#000000" points="800.7743,-140.9909 804.2742,-150.991 807.7743,-140.991 800.7743,-140.9909"/>
</g>
<!-- ResultsComponent -->
<g id="node6" class="node">
<title>ResultsComponent</title>
<polygon fill="#ffffb3" stroke="#000000" points="770.0548,-122 647.9452,-122 647.9452,-86 770.0548,-86 770.0548,-122"/>
<text text-anchor="middle" x="709" y="-99.8" font-family="Times,serif" font-size="14.00" fill="#000000">ResultsComponent</text>
</g>
<!-- ResultsComponent&#45;&gt;EventModule -->
<g id="edge6" class="edge">
<title>ResultsComponent&#45;&gt;EventModule</title>
<path fill="none" stroke="#000000" d="M749.0866,-122.1061C749.0866,-122.1061 749.0866,-140.991 749.0866,-140.991"/>
<polygon fill="#000000" stroke="#000000" points="745.5867,-140.9909 749.0866,-150.991 752.5867,-140.991 745.5867,-140.9909"/>
</g>
<!-- ScoreEditorComponent -->
<g id="node7" class="node">
<title>ScoreEditorComponent</title>
<polygon fill="#ffffb3" stroke="#000000" points="630.1993,-122 481.8007,-122 481.8007,-86 630.1993,-86 630.1993,-122"/>
<text text-anchor="middle" x="556" y="-99.8" font-family="Times,serif" font-size="14.00" fill="#000000">ScoreEditorComponent</text>
</g>
<!-- ScoreEditorComponent&#45;&gt;EventModule -->
<g id="edge7" class="edge">
<title>ScoreEditorComponent&#45;&gt;EventModule</title>
<path fill="none" stroke="#000000" d="M556,-122.0091C556,-138.0494 556,-159 556,-159 556,-159 717.7678,-159 717.7678,-159"/>
<polygon fill="#000000" stroke="#000000" points="717.7678,-162.5001 727.7678,-159 717.7678,-155.5001 717.7678,-162.5001"/>
</g>
<!-- SignoffReportComponent -->
<g id="node8" class="node">
<title>SignoffReportComponent</title>
<polygon fill="#ffffb3" stroke="#000000" points="463.9298,-122 302.0702,-122 302.0702,-86 463.9298,-86 463.9298,-122"/>
<text text-anchor="middle" x="383" y="-99.8" font-family="Times,serif" font-size="14.00" fill="#000000">SignoffReportComponent</text>
</g>
<!-- SignoffReportComponent&#45;&gt;EventModule -->
<g id="edge8" class="edge">
<title>SignoffReportComponent&#45;&gt;EventModule</title>
<path fill="none" stroke="#000000" d="M383,-122.2667C383,-140.5552 383,-166 383,-166 383,-166 717.6117,-166 717.6117,-166"/>
<polygon fill="#000000" stroke="#000000" points="717.6118,-169.5001 727.6117,-166 717.6117,-162.5001 717.6118,-169.5001"/>
</g>
<!-- EventRoutingModule -->
<g id="node10" class="node">
<title>EventRoutingModule</title>
<polygon fill="#8dd3c7" stroke="#000000" points="277.8258,-122 274.8258,-126 253.8258,-126 250.8258,-122 140.1742,-122 140.1742,-86 277.8258,-86 277.8258,-122"/>
<text text-anchor="middle" x="209" y="-99.8" font-family="Times,serif" font-size="14.00" fill="#000000">EventRoutingModule</text>
</g>
<!-- EventRoutingModule&#45;&gt;EventModule -->
<g id="edge9" class="edge">
<title>EventRoutingModule&#45;&gt;EventModule</title>
<path fill="none" stroke="#000000" d="M209,-122.1289C209,-142.5724 209,-173 209,-173 209,-173 717.7637,-173 717.7637,-173"/>
<polygon fill="#000000" stroke="#000000" points="717.7637,-176.5001 727.7637,-173 717.7636,-169.5001 717.7637,-176.5001"/>
</g>
<!-- SharedModule -->
<g id="node11" class="node">
<title>SharedModule</title>
<polygon fill="#8dd3c7" stroke="#000000" points="122.4231,-122 119.4231,-126 98.4231,-126 95.4231,-122 23.5769,-122 23.5769,-86 122.4231,-86 122.4231,-122"/>
<text text-anchor="middle" x="73" y="-99.8" font-family="Times,serif" font-size="14.00" fill="#000000">SharedModule</text>
</g>
<!-- SharedModule&#45;&gt;EventModule -->
<g id="edge10" class="edge">
<title>SharedModule&#45;&gt;EventModule</title>
<path fill="none" stroke="#000000" d="M73,-122.0109C73,-144.4852 73,-180 73,-180 73,-180 717.7343,-180 717.7343,-180"/>
<polygon fill="#000000" stroke="#000000" points="717.7344,-183.5001 727.7343,-180 717.7343,-176.5001 717.7344,-183.5001"/>
</g>
</g>
</svg>
