<?xml version="1.0" encoding="UTF-8" standalone="no"?>
<!DOCTYPE svg PUBLIC "-//W3C//DTD SVG 1.1//EN"
 "http://www.w3.org/Graphics/SVG/1.1/DTD/svg11.dtd">
<!-- Generated by graphviz version 2.40.1 (20161225.0304)
 -->
<!-- Title: dependencies Pages: 1 -->
<svg width="544pt" height="284pt"
 viewBox="0.00 0.00 544.00 284.00" xmlns="http://www.w3.org/2000/svg" xmlns:xlink="http://www.w3.org/1999/xlink">
<g id="graph0" class="graph" transform="scale(1 1) rotate(0) translate(4 280)">
<title>dependencies</title>
<polygon fill="#ffffff" stroke="transparent" points="-4,4 -4,-280 540,-280 540,4 -4,4"/>
<text text-anchor="start" x="247.0091" y="-42.4" font-family="sans-serif" font-weight="bold" font-size="14.00" fill="#000000">Legend</text>
<polygon fill="#ffffb3" stroke="transparent" points="34,-10 34,-30 54,-30 54,-10 34,-10"/>
<text text-anchor="start" x="57.629" y="-15.4" font-family="sans-serif" font-size="14.00" fill="#000000"> &#160;Declarations</text>
<polygon fill="#8dd3c7" stroke="transparent" points="147,-10 147,-30 167,-30 167,-10 147,-10"/>
<text text-anchor="start" x="170.7251" y="-15.4" font-family="sans-serif" font-size="14.00" fill="#000000"> &#160;Module</text>
<polygon fill="#80b1d3" stroke="transparent" points="233,-10 233,-30 253,-30 253,-10 233,-10"/>
<text text-anchor="start" x="256.7812" y="-15.4" font-family="sans-serif" font-size="14.00" fill="#000000"> &#160;Bootstrap</text>
<polygon fill="#fdb462" stroke="transparent" points="330,-10 330,-30 350,-30 350,-10 330,-10"/>
<text text-anchor="start" x="353.6732" y="-15.4" font-family="sans-serif" font-size="14.00" fill="#000000"> &#160;Providers</text>
<polygon fill="#fb8072" stroke="transparent" points="426,-10 426,-30 446,-30 446,-10 426,-10"/>
<text text-anchor="start" x="449.7258" y="-15.4" font-family="sans-serif" font-size="14.00" fill="#000000"> &#160;Exports</text>
<g id="clust1" class="cluster">
<title>cluster_ConfigureSharedModule</title>
<polygon fill="none" stroke="#000000" stroke-dasharray="1,5" points="8,-70 8,-268 528,-268 528,-70 8,-70"/>
</g>
<g id="clust2" class="cluster">
<title>cluster_ConfigureSharedModule_declarations</title>
<polygon fill="none" stroke="#000000" points="138,-78 138,-130 520,-130 520,-78 138,-78"/>
</g>
<g id="clust5" class="cluster">
<title>cluster_ConfigureSharedModule_imports</title>
<polygon fill="none" stroke="#000000" points="16,-78 16,-130 130,-130 130,-78 16,-78"/>
</g>
<g id="clust6" class="cluster">
<title>cluster_ConfigureSharedModule_exports</title>
<polygon fill="none" stroke="#000000" points="74,-208 74,-260 462,-260 462,-208 74,-208"/>
</g>
<!-- DivisionLookupComponent -->
<g id="node1" class="node">
<title>DivisionLookupComponent</title>
<polygon fill="#ffffb3" stroke="#000000" points="511.608,-122 338.392,-122 338.392,-86 511.608,-86 511.608,-122"/>
<text text-anchor="middle" x="425" y="-99.8" font-family="Times,serif" font-size="14.00" fill="#000000">DivisionLookupComponent</text>
</g>
<!-- ConfigureSharedModule -->
<g id="node3" class="node">
<title>ConfigureSharedModule</title>
<polygon fill="#8dd3c7" stroke="#000000" points="310.6853,-187 307.6853,-191 286.6853,-191 283.6853,-187 155.3147,-187 155.3147,-151 310.6853,-151 310.6853,-187"/>
<text text-anchor="middle" x="233" y="-164.8" font-family="Times,serif" font-size="14.00" fill="#000000">ConfigureSharedModule</text>
</g>
<!-- DivisionLookupComponent&#45;&gt;ConfigureSharedModule -->
<g id="edge1" class="edge">
<title>DivisionLookupComponent&#45;&gt;ConfigureSharedModule</title>
<path fill="none" stroke="#000000" d="M396.375,-122.1061C396.375,-141.3391 396.375,-169 396.375,-169 396.375,-169 320.8596,-169 320.8596,-169"/>
<polygon fill="#000000" stroke="#000000" points="320.8597,-165.5001 310.8596,-169 320.8596,-172.5001 320.8597,-165.5001"/>
</g>
<!-- MemberSelectorComponent -->
<g id="node2" class="node">
<title>MemberSelectorComponent</title>
<polygon fill="#ffffb3" stroke="#000000" points="320.126,-122 145.874,-122 145.874,-86 320.126,-86 320.126,-122"/>
<text text-anchor="middle" x="233" y="-99.8" font-family="Times,serif" font-size="14.00" fill="#000000">MemberSelectorComponent</text>
</g>
<!-- MemberSelectorComponent&#45;&gt;ConfigureSharedModule -->
<g id="edge2" class="edge">
<title>MemberSelectorComponent&#45;&gt;ConfigureSharedModule</title>
<path fill="none" stroke="#000000" d="M233,-122.1061C233,-122.1061 233,-140.991 233,-140.991"/>
<polygon fill="#000000" stroke="#000000" points="229.5001,-140.9909 233,-150.991 236.5001,-140.991 229.5001,-140.9909"/>
</g>
<!-- DivisionLookupComponent  -->
<g id="node5" class="node">
<title>DivisionLookupComponent </title>
<polygon fill="#fb8072" stroke="#000000" points="454.1084,-252 277.8916,-252 277.8916,-216 454.1084,-216 454.1084,-252"/>
<text text-anchor="middle" x="366" y="-229.8" font-family="Times,serif" font-size="14.00" fill="#000000">DivisionLookupComponent </text>
</g>
<!-- ConfigureSharedModule&#45;&gt;DivisionLookupComponent  -->
<g id="edge4" class="edge">
<title>ConfigureSharedModule&#45;&gt;DivisionLookupComponent </title>
<path fill="none" stroke="#000000" stroke-dasharray="5,2" d="M294.1443,-187.1061C294.1443,-187.1061 294.1443,-205.991 294.1443,-205.991"/>
<polygon fill="#000000" stroke="#000000" points="290.6444,-205.9909 294.1443,-215.991 297.6444,-205.991 290.6444,-205.9909"/>
</g>
<!-- MemberSelectorComponent  -->
<g id="node6" class="node">
<title>MemberSelectorComponent </title>
<polygon fill="#fb8072" stroke="#000000" points="260.1256,-252 81.8744,-252 81.8744,-216 260.1256,-216 260.1256,-252"/>
<text text-anchor="middle" x="171" y="-229.8" font-family="Times,serif" font-size="14.00" fill="#000000">MemberSelectorComponent </text>
</g>
<!-- ConfigureSharedModule&#45;&gt;MemberSelectorComponent  -->
<g id="edge5" class="edge">
<title>ConfigureSharedModule&#45;&gt;MemberSelectorComponent </title>
<path fill="none" stroke="#000000" stroke-dasharray="5,2" d="M207.7351,-187.1061C207.7351,-187.1061 207.7351,-205.991 207.7351,-205.991"/>
<polygon fill="#000000" stroke="#000000" points="204.2352,-205.9909 207.7351,-215.991 211.2352,-205.991 204.2352,-205.9909"/>
</g>
<!-- SharedModule -->
<g id="node4" class="node">
<title>SharedModule</title>
<polygon fill="#8dd3c7" stroke="#000000" points="122.4231,-122 119.4231,-126 98.4231,-126 95.4231,-122 23.5769,-122 23.5769,-86 122.4231,-86 122.4231,-122"/>
<text text-anchor="middle" x="73" y="-99.8" font-family="Times,serif" font-size="14.00" fill="#000000">SharedModule</text>
</g>
<!-- SharedModule&#45;&gt;ConfigureSharedModule -->
<g id="edge3" class="edge">
<title>SharedModule&#45;&gt;ConfigureSharedModule</title>
<path fill="none" stroke="#000000" d="M102.0742,-122.1061C102.0742,-141.3391 102.0742,-169 102.0742,-169 102.0742,-169 145.3267,-169 145.3267,-169"/>
<polygon fill="#000000" stroke="#000000" points="145.3267,-172.5001 155.3267,-169 145.3267,-165.5001 145.3267,-172.5001"/>
</g>
</g>
</svg>
