<?xml version="1.0" encoding="UTF-8" standalone="no"?>
<!DOCTYPE svg PUBLIC "-//W3C//DTD SVG 1.1//EN"
 "http://www.w3.org/Graphics/SVG/1.1/DTD/svg11.dtd">
<!-- Generated by graphviz version 2.40.1 (20161225.0304)
 -->
<!-- Title: dependencies Pages: 1 -->
<svg width="1620pt" height="284pt"
 viewBox="0.00 0.00 1620.00 284.00" xmlns="http://www.w3.org/2000/svg" xmlns:xlink="http://www.w3.org/1999/xlink">
<g id="graph0" class="graph" transform="scale(1 1) rotate(0) translate(4 280)">
<title>dependencies</title>
<polygon fill="#ffffff" stroke="transparent" points="-4,4 -4,-280 1616,-280 1616,4 -4,4"/>
<text text-anchor="start" x="785.0091" y="-42.4" font-family="sans-serif" font-weight="bold" font-size="14.00" fill="#000000">Legend</text>
<polygon fill="#ffffb3" stroke="transparent" points="572,-10 572,-30 592,-30 592,-10 572,-10"/>
<text text-anchor="start" x="595.629" y="-15.4" font-family="sans-serif" font-size="14.00" fill="#000000"> &#160;Declarations</text>
<polygon fill="#8dd3c7" stroke="transparent" points="685,-10 685,-30 705,-30 705,-10 685,-10"/>
<text text-anchor="start" x="708.7251" y="-15.4" font-family="sans-serif" font-size="14.00" fill="#000000"> &#160;Module</text>
<polygon fill="#80b1d3" stroke="transparent" points="771,-10 771,-30 791,-30 791,-10 771,-10"/>
<text text-anchor="start" x="794.7812" y="-15.4" font-family="sans-serif" font-size="14.00" fill="#000000"> &#160;Bootstrap</text>
<polygon fill="#fdb462" stroke="transparent" points="868,-10 868,-30 888,-30 888,-10 868,-10"/>
<text text-anchor="start" x="891.6732" y="-15.4" font-family="sans-serif" font-size="14.00" fill="#000000"> &#160;Providers</text>
<polygon fill="#fb8072" stroke="transparent" points="964,-10 964,-30 984,-30 984,-10 964,-10"/>
<text text-anchor="start" x="987.7258" y="-15.4" font-family="sans-serif" font-size="14.00" fill="#000000"> &#160;Exports</text>
<g id="clust1" class="cluster">
<title>cluster_AppModule</title>
<polygon fill="none" stroke="#000000" stroke-dasharray="1,5" points="8,-70 8,-268 1604,-268 1604,-70 8,-70"/>
</g>
<g id="clust2" class="cluster">
<title>cluster_AppModule_declarations</title>
<polygon fill="none" stroke="#000000" points="793,-78 793,-130 1596,-130 1596,-78 793,-78"/>
</g>
<g id="clust9" class="cluster">
<title>cluster_AppModule_imports</title>
<polygon fill="none" stroke="#000000" points="393,-78 393,-130 785,-130 785,-78 393,-78"/>
</g>
<g id="clust11" class="cluster">
<title>cluster_AppModule_bootstrap</title>
<polygon fill="none" stroke="#000000" points="795,-208 795,-260 919,-260 919,-208 795,-208"/>
</g>
<g id="clust12" class="cluster">
<title>cluster_AppModule_providers</title>
<polygon fill="none" stroke="#000000" points="16,-78 16,-130 385,-130 385,-78 16,-78"/>
</g>
<!-- AppComponent -->
<g id="node1" class="node">
<title>AppComponent</title>
<polygon fill="#ffffb3" stroke="#000000" points="1587.9399,-122 1482.0601,-122 1482.0601,-86 1587.9399,-86 1587.9399,-122"/>
<text text-anchor="middle" x="1535" y="-99.8" font-family="Times,serif" font-size="14.00" fill="#000000">AppComponent</text>
</g>
<!-- AppModule -->
<g id="node7" class="node">
<title>AppModule</title>
<polygon fill="#8dd3c7" stroke="#000000" points="898.6571,-187 895.6571,-191 874.6571,-191 871.6571,-187 815.3429,-187 815.3429,-151 898.6571,-151 898.6571,-187"/>
<text text-anchor="middle" x="857" y="-164.8" font-family="Times,serif" font-size="14.00" fill="#000000">AppModule</text>
</g>
<!-- AppComponent&#45;&gt;AppModule -->
<g id="edge1" class="edge">
<title>AppComponent&#45;&gt;AppModule</title>
<path fill="none" stroke="#000000" d="M1535,-122.2479C1535,-145.0179 1535,-181 1535,-181 1535,-181 908.9003,-181 908.9003,-181"/>
<polygon fill="#000000" stroke="#000000" points="908.9003,-177.5001 898.9003,-181 908.9002,-184.5001 908.9003,-177.5001"/>
</g>
<!-- HomeComponent -->
<g id="node2" class="node">
<title>HomeComponent</title>
<polygon fill="#ffffb3" stroke="#000000" points="1464.5451,-122 1349.4549,-122 1349.4549,-86 1464.5451,-86 1464.5451,-122"/>
<text text-anchor="middle" x="1407" y="-99.8" font-family="Times,serif" font-size="14.00" fill="#000000">HomeComponent</text>
</g>
<!-- HomeComponent&#45;&gt;AppModule -->
<g id="edge2" class="edge">
<title>HomeComponent&#45;&gt;AppModule</title>
<path fill="none" stroke="#000000" d="M1407,-122.2843C1407,-143.3211 1407,-175 1407,-175 1407,-175 908.7908,-175 908.7908,-175"/>
<polygon fill="#000000" stroke="#000000" points="908.7909,-171.5001 898.7908,-175 908.7908,-178.5001 908.7909,-171.5001"/>
</g>
<!-- LoginComponent -->
<g id="node3" class="node">
<title>LoginComponent</title>
<polygon fill="#ffffb3" stroke="#000000" points="1331.2758,-122 1216.7242,-122 1216.7242,-86 1331.2758,-86 1331.2758,-122"/>
<text text-anchor="middle" x="1274" y="-99.8" font-family="Times,serif" font-size="14.00" fill="#000000">LoginComponent</text>
</g>
<!-- LoginComponent&#45;&gt;AppModule -->
<g id="edge3" class="edge">
<title>LoginComponent&#45;&gt;AppModule</title>
<path fill="none" stroke="#000000" d="M1274,-122.1061C1274,-141.3391 1274,-169 1274,-169 1274,-169 908.8928,-169 908.8928,-169"/>
<polygon fill="#000000" stroke="#000000" points="908.8929,-165.5001 898.8928,-169 908.8928,-172.5001 908.8929,-165.5001"/>
</g>
<!-- LogoutComponent -->
<g id="node4" class="node">
<title>LogoutComponent</title>
<polygon fill="#ffffb3" stroke="#000000" points="1198.7758,-122 1077.2242,-122 1077.2242,-86 1198.7758,-86 1198.7758,-122"/>
<text text-anchor="middle" x="1138" y="-99.8" font-family="Times,serif" font-size="14.00" fill="#000000">LogoutComponent</text>
</g>
<!-- LogoutComponent&#45;&gt;AppModule -->
<g id="edge4" class="edge">
<title>LogoutComponent&#45;&gt;AppModule</title>
<path fill="none" stroke="#000000" d="M1138,-122.0225C1138,-139.3734 1138,-163 1138,-163 1138,-163 908.7651,-163 908.7651,-163"/>
<polygon fill="#000000" stroke="#000000" points="908.7652,-159.5001 898.7651,-163 908.7651,-166.5001 908.7652,-159.5001"/>
</g>
<!-- RegisterComponent -->
<g id="node5" class="node">
<title>RegisterComponent</title>
<polygon fill="#ffffb3" stroke="#000000" points="1058.9846,-122 931.0154,-122 931.0154,-86 1058.9846,-86 1058.9846,-122"/>
<text text-anchor="middle" x="995" y="-99.8" font-family="Times,serif" font-size="14.00" fill="#000000">RegisterComponent</text>
</g>
<!-- RegisterComponent&#45;&gt;AppModule -->
<g id="edge5" class="edge">
<title>RegisterComponent&#45;&gt;AppModule</title>
<path fill="none" stroke="#000000" d="M995,-122.2396C995,-137.5706 995,-157 995,-157 995,-157 908.779,-157 908.779,-157"/>
<polygon fill="#000000" stroke="#000000" points="908.7791,-153.5001 898.779,-157 908.779,-160.5001 908.7791,-153.5001"/>
</g>
<!-- ResetComponent -->
<g id="node6" class="node">
<title>ResetComponent</title>
<polygon fill="#ffffb3" stroke="#000000" points="913.4342,-122 800.5658,-122 800.5658,-86 913.4342,-86 913.4342,-122"/>
<text text-anchor="middle" x="857" y="-99.8" font-family="Times,serif" font-size="14.00" fill="#000000">ResetComponent</text>
</g>
<!-- ResetComponent&#45;&gt;AppModule -->
<g id="edge6" class="edge">
<title>ResetComponent&#45;&gt;AppModule</title>
<path fill="none" stroke="#000000" d="M857,-122.1061C857,-122.1061 857,-140.991 857,-140.991"/>
<polygon fill="#000000" stroke="#000000" points="853.5001,-140.9909 857,-150.991 860.5001,-140.991 853.5001,-140.9909"/>
</g>
<!-- AppComponent  -->
<g id="node11" class="node">
<title>AppComponent </title>
<polygon fill="#80b1d3" stroke="#000000" points="911.439,-252 802.561,-252 802.561,-216 911.439,-216 911.439,-252"/>
<text text-anchor="middle" x="857" y="-229.8" font-family="Times,serif" font-size="14.00" fill="#000000">AppComponent </text>
</g>
<!-- AppModule&#45;&gt;AppComponent  -->
<g id="edge10" class="edge">
<title>AppModule&#45;&gt;AppComponent </title>
<path fill="none" stroke="#000000" stroke-dasharray="1,5" d="M857,-187.1061C857,-187.1061 857,-205.991 857,-205.991"/>
<polygon fill="#000000" stroke="#000000" points="853.5001,-205.9909 857,-215.991 860.5001,-205.991 853.5001,-205.9909"/>
</g>
<!-- AppRoutingModule -->
<g id="node8" class="node">
<title>AppRoutingModule</title>
<polygon fill="#8dd3c7" stroke="#000000" points="777.2744,-122 774.2744,-126 753.2744,-126 750.2744,-122 648.7256,-122 648.7256,-86 777.2744,-86 777.2744,-122"/>
<text text-anchor="middle" x="713" y="-99.8" font-family="Times,serif" font-size="14.00" fill="#000000">AppRoutingModule</text>
</g>
<!-- AppRoutingModule&#45;&gt;AppModule -->
<g id="edge7" class="edge">
<title>AppRoutingModule&#45;&gt;AppModule</title>
<path fill="none" stroke="#000000" d="M713,-122.2396C713,-137.5706 713,-157 713,-157 713,-157 804.9621,-157 804.9621,-157"/>
<polygon fill="#000000" stroke="#000000" points="804.9622,-160.5001 814.9621,-157 804.9621,-153.5001 804.9622,-160.5001"/>
</g>
<!-- GraphQLModule -->
<g id="node9" class="node">
<title>GraphQLModule</title>
<polygon fill="#8dd3c7" stroke="#000000" points="630.691,-122 627.691,-126 606.691,-126 603.691,-122 517.309,-122 517.309,-86 630.691,-86 630.691,-122"/>
<text text-anchor="middle" x="574" y="-99.8" font-family="Times,serif" font-size="14.00" fill="#000000">GraphQLModule</text>
</g>
<!-- GraphQLModule&#45;&gt;AppModule -->
<g id="edge8" class="edge">
<title>GraphQLModule&#45;&gt;AppModule</title>
<path fill="none" stroke="#000000" d="M574,-122.0225C574,-139.3734 574,-163 574,-163 574,-163 805.2424,-163 805.2424,-163"/>
<polygon fill="#000000" stroke="#000000" points="805.2424,-166.5001 815.2424,-163 805.2423,-159.5001 805.2424,-166.5001"/>
</g>
<!-- SharedModule -->
<g id="node10" class="node">
<title>SharedModule</title>
<polygon fill="#8dd3c7" stroke="#000000" points="499.4231,-122 496.4231,-126 475.4231,-126 472.4231,-122 400.5769,-122 400.5769,-86 499.4231,-86 499.4231,-122"/>
<text text-anchor="middle" x="450" y="-99.8" font-family="Times,serif" font-size="14.00" fill="#000000">SharedModule</text>
</g>
<!-- SharedModule&#45;&gt;AppModule -->
<g id="edge9" class="edge">
<title>SharedModule&#45;&gt;AppModule</title>
<path fill="none" stroke="#000000" d="M450,-122.1061C450,-141.3391 450,-169 450,-169 450,-169 804.9768,-169 804.9768,-169"/>
<polygon fill="#000000" stroke="#000000" points="804.9768,-172.5001 814.9768,-169 804.9768,-165.5001 804.9768,-172.5001"/>
</g>
<!-- AuthInterceptor -->
<g id="node12" class="node">
<title>AuthInterceptor</title>
<ellipse fill="#fdb462" stroke="#000000" cx="304" cy="-104" rx="72.9121" ry="18"/>
<text text-anchor="middle" x="304" y="-99.8" font-family="Times,serif" font-size="14.00" fill="#000000">AuthInterceptor</text>
</g>
<!-- AuthInterceptor&#45;&gt;AppModule -->
<g id="edge11" class="edge">
<title>AuthInterceptor&#45;&gt;AppModule</title>
<path fill="none" stroke="#000000" d="M304,-122.2843C304,-143.3211 304,-175 304,-175 304,-175 804.9812,-175 804.9812,-175"/>
<polygon fill="#000000" stroke="#000000" points="804.9813,-178.5001 814.9812,-175 804.9812,-171.5001 804.9813,-178.5001"/>
</g>
<!-- HttpCacheInterceptor -->
<g id="node13" class="node">
<title>HttpCacheInterceptor</title>
<ellipse fill="#fdb462" stroke="#000000" cx="119" cy="-104" rx="94.88" ry="18"/>
<text text-anchor="middle" x="119" y="-99.8" font-family="Times,serif" font-size="14.00" fill="#000000">HttpCacheInterceptor</text>
</g>
<!-- HttpCacheInterceptor&#45;&gt;AppModule -->
<g id="edge12" class="edge">
<title>HttpCacheInterceptor&#45;&gt;AppModule</title>
<path fill="none" stroke="#000000" d="M119,-122.2479C119,-145.0179 119,-181 119,-181 119,-181 805.2074,-181 805.2074,-181"/>
<polygon fill="#000000" stroke="#000000" points="805.2074,-184.5001 815.2074,-181 805.2074,-177.5001 805.2074,-184.5001"/>
</g>
</g>
</svg>
