<?xml version="1.0" encoding="UTF-8" standalone="no"?>
<!DOCTYPE svg PUBLIC "-//W3C//DTD SVG 1.1//EN"
 "http://www.w3.org/Graphics/SVG/1.1/DTD/svg11.dtd">
<!-- Generated by graphviz version 2.40.1 (20161225.0304)
 -->
<!-- Title: dependencies Pages: 1 -->
<svg width="739pt" height="211pt"
 viewBox="0.00 0.00 739.00 211.00" xmlns="http://www.w3.org/2000/svg" xmlns:xlink="http://www.w3.org/1999/xlink">
<g id="graph0" class="graph" transform="scale(1 1) rotate(0) translate(4 207)">
<title>dependencies</title>
<polygon fill="#ffffff" stroke="transparent" points="-4,4 -4,-207 735,-207 735,4 -4,4"/>
<text text-anchor="start" x="344.5091" y="-42.4" font-family="sans-serif" font-weight="bold" font-size="14.00" fill="#000000">Legend</text>
<polygon fill="#ffffb3" stroke="transparent" points="131.5,-10 131.5,-30 151.5,-30 151.5,-10 131.5,-10"/>
<text text-anchor="start" x="155.129" y="-15.4" font-family="sans-serif" font-size="14.00" fill="#000000"> &#160;Declarations</text>
<polygon fill="#8dd3c7" stroke="transparent" points="244.5,-10 244.5,-30 264.5,-30 264.5,-10 244.5,-10"/>
<text text-anchor="start" x="268.2251" y="-15.4" font-family="sans-serif" font-size="14.00" fill="#000000"> &#160;Module</text>
<polygon fill="#80b1d3" stroke="transparent" points="330.5,-10 330.5,-30 350.5,-30 350.5,-10 330.5,-10"/>
<text text-anchor="start" x="354.2812" y="-15.4" font-family="sans-serif" font-size="14.00" fill="#000000"> &#160;Bootstrap</text>
<polygon fill="#fdb462" stroke="transparent" points="427.5,-10 427.5,-30 447.5,-30 447.5,-10 427.5,-10"/>
<text text-anchor="start" x="451.1732" y="-15.4" font-family="sans-serif" font-size="14.00" fill="#000000"> &#160;Providers</text>
<polygon fill="#fb8072" stroke="transparent" points="523.5,-10 523.5,-30 543.5,-30 543.5,-10 523.5,-10"/>
<text text-anchor="start" x="547.2258" y="-15.4" font-family="sans-serif" font-size="14.00" fill="#000000"> &#160;Exports</text>
<g id="clust1" class="cluster">
<title>cluster_AdvancedModule</title>
<polygon fill="none" stroke="#000000" stroke-dasharray="1,5" points="8,-70 8,-195 723,-195 723,-70 8,-70"/>
</g>
<g id="clust2" class="cluster">
<title>cluster_AdvancedModule_declarations</title>
<polygon fill="none" stroke="#000000" points="561,-78 561,-130 715,-130 715,-78 561,-78"/>
</g>
<g id="clust4" class="cluster">
<title>cluster_AdvancedModule_imports</title>
<polygon fill="none" stroke="#000000" points="16,-78 16,-130 553,-130 553,-78 16,-78"/>
</g>
<!-- AdvancedComponent -->
<g id="node1" class="node">
<title>AdvancedComponent</title>
<polygon fill="#ffffb3" stroke="#000000" points="707.0828,-122 568.9172,-122 568.9172,-86 707.0828,-86 707.0828,-122"/>
<text text-anchor="middle" x="638" y="-99.8" font-family="Times,serif" font-size="14.00" fill="#000000">AdvancedComponent</text>
</g>
<!-- AdvancedModule -->
<g id="node2" class="node">
<title>AdvancedModule</title>
<polygon fill="#8dd3c7" stroke="#000000" points="406.3006,-187 403.3006,-191 382.3006,-191 379.3006,-187 289.6994,-187 289.6994,-151 406.3006,-151 406.3006,-187"/>
<text text-anchor="middle" x="348" y="-164.8" font-family="Times,serif" font-size="14.00" fill="#000000">AdvancedModule</text>
</g>
<!-- AdvancedComponent&#45;&gt;AdvancedModule -->
<g id="edge1" class="edge">
<title>AdvancedComponent&#45;&gt;AdvancedModule</title>
<path fill="none" stroke="#000000" d="M638,-122.2843C638,-143.3211 638,-175 638,-175 638,-175 416.337,-175 416.337,-175"/>
<polygon fill="#000000" stroke="#000000" points="416.337,-171.5001 406.337,-175 416.3369,-178.5001 416.337,-171.5001"/>
</g>
<!-- DisciplinesModule -->
<g id="node3" class="node">
<title>DisciplinesModule</title>
<polygon fill="#8dd3c7" stroke="#000000" points="545.0381,-122 542.0381,-126 521.0381,-126 518.0381,-122 422.9619,-122 422.9619,-86 545.0381,-86 545.0381,-122"/>
<text text-anchor="middle" x="484" y="-99.8" font-family="Times,serif" font-size="14.00" fill="#000000">DisciplinesModule</text>
</g>
<!-- DisciplinesModule&#45;&gt;AdvancedModule -->
<g id="edge2" class="edge">
<title>DisciplinesModule&#45;&gt;AdvancedModule</title>
<path fill="none" stroke="#000000" d="M484,-122.0225C484,-139.3734 484,-163 484,-163 484,-163 416.4655,-163 416.4655,-163"/>
<polygon fill="#000000" stroke="#000000" points="416.4656,-159.5001 406.4655,-163 416.4655,-166.5001 416.4656,-159.5001"/>
</g>
<!-- DivisionsModule -->
<g id="node4" class="node">
<title>DivisionsModule</title>
<polygon fill="#8dd3c7" stroke="#000000" points="404.7176,-122 401.7176,-126 380.7176,-126 377.7176,-122 291.2824,-122 291.2824,-86 404.7176,-86 404.7176,-122"/>
<text text-anchor="middle" x="348" y="-99.8" font-family="Times,serif" font-size="14.00" fill="#000000">DivisionsModule</text>
</g>
<!-- DivisionsModule&#45;&gt;AdvancedModule -->
<g id="edge3" class="edge">
<title>DivisionsModule&#45;&gt;AdvancedModule</title>
<path fill="none" stroke="#000000" d="M348,-122.1061C348,-122.1061 348,-140.991 348,-140.991"/>
<polygon fill="#000000" stroke="#000000" points="344.5001,-140.9909 348,-150.991 351.5001,-140.991 344.5001,-140.9909"/>
</g>
<!-- ScoreSystemModule -->
<g id="node5" class="node">
<title>ScoreSystemModule</title>
<polygon fill="#8dd3c7" stroke="#000000" points="273.1457,-122 270.1457,-126 249.1457,-126 246.1457,-122 140.8543,-122 140.8543,-86 273.1457,-86 273.1457,-122"/>
<text text-anchor="middle" x="207" y="-99.8" font-family="Times,serif" font-size="14.00" fill="#000000">ScoreSystemModule</text>
</g>
<!-- ScoreSystemModule&#45;&gt;AdvancedModule -->
<g id="edge4" class="edge">
<title>ScoreSystemModule&#45;&gt;AdvancedModule</title>
<path fill="none" stroke="#000000" d="M207,-122.0225C207,-139.3734 207,-163 207,-163 207,-163 279.8358,-163 279.8358,-163"/>
<polygon fill="#000000" stroke="#000000" points="279.8359,-166.5001 289.8358,-163 279.8358,-159.5001 279.8359,-166.5001"/>
</g>
<!-- SharedModule -->
<g id="node6" class="node">
<title>SharedModule</title>
<polygon fill="#8dd3c7" stroke="#000000" points="122.4231,-122 119.4231,-126 98.4231,-126 95.4231,-122 23.5769,-122 23.5769,-86 122.4231,-86 122.4231,-122"/>
<text text-anchor="middle" x="73" y="-99.8" font-family="Times,serif" font-size="14.00" fill="#000000">SharedModule</text>
</g>
<!-- SharedModule&#45;&gt;AdvancedModule -->
<g id="edge5" class="edge">
<title>SharedModule&#45;&gt;AdvancedModule</title>
<path fill="none" stroke="#000000" d="M73,-122.2843C73,-143.3211 73,-175 73,-175 73,-175 279.6796,-175 279.6796,-175"/>
<polygon fill="#000000" stroke="#000000" points="279.6796,-178.5001 289.6796,-175 279.6795,-171.5001 279.6796,-178.5001"/>
</g>
</g>
</svg>
