<?xml version="1.0" encoding="UTF-8" standalone="no"?>
<!DOCTYPE svg PUBLIC "-//W3C//DTD SVG 1.1//EN"
 "http://www.w3.org/Graphics/SVG/1.1/DTD/svg11.dtd">
<!-- Generated by graphviz version 2.40.1 (20161225.0304)
 -->
<!-- Title: dependencies Pages: 1 -->
<svg width="1755pt" height="211pt"
 viewBox="0.00 0.00 1755.00 211.00" xmlns="http://www.w3.org/2000/svg" xmlns:xlink="http://www.w3.org/1999/xlink">
<g id="graph0" class="graph" transform="scale(1 1) rotate(0) translate(4 207)">
<title>dependencies</title>
<polygon fill="#ffffff" stroke="transparent" points="-4,4 -4,-207 1751,-207 1751,4 -4,4"/>
<text text-anchor="start" x="852.5091" y="-42.4" font-family="sans-serif" font-weight="bold" font-size="14.00" fill="#000000">Legend</text>
<polygon fill="#ffffb3" stroke="transparent" points="639.5,-10 639.5,-30 659.5,-30 659.5,-10 639.5,-10"/>
<text text-anchor="start" x="663.129" y="-15.4" font-family="sans-serif" font-size="14.00" fill="#000000"> &#160;Declarations</text>
<polygon fill="#8dd3c7" stroke="transparent" points="752.5,-10 752.5,-30 772.5,-30 772.5,-10 752.5,-10"/>
<text text-anchor="start" x="776.2251" y="-15.4" font-family="sans-serif" font-size="14.00" fill="#000000"> &#160;Module</text>
<polygon fill="#80b1d3" stroke="transparent" points="838.5,-10 838.5,-30 858.5,-30 858.5,-10 838.5,-10"/>
<text text-anchor="start" x="862.2812" y="-15.4" font-family="sans-serif" font-size="14.00" fill="#000000"> &#160;Bootstrap</text>
<polygon fill="#fdb462" stroke="transparent" points="935.5,-10 935.5,-30 955.5,-30 955.5,-10 935.5,-10"/>
<text text-anchor="start" x="959.1732" y="-15.4" font-family="sans-serif" font-size="14.00" fill="#000000"> &#160;Providers</text>
<polygon fill="#fb8072" stroke="transparent" points="1031.5,-10 1031.5,-30 1051.5,-30 1051.5,-10 1031.5,-10"/>
<text text-anchor="start" x="1055.2258" y="-15.4" font-family="sans-serif" font-size="14.00" fill="#000000"> &#160;Exports</text>
<g id="clust1" class="cluster">
<title>cluster_ClubModule</title>
<polygon fill="none" stroke="#000000" stroke-dasharray="1,5" points="8,-70 8,-195 1739,-195 1739,-70 8,-70"/>
</g>
<g id="clust2" class="cluster">
<title>cluster_ClubModule_declarations</title>
<polygon fill="none" stroke="#000000" points="520,-78 520,-130 1731,-130 1731,-78 520,-78"/>
</g>
<g id="clust11" class="cluster">
<title>cluster_ClubModule_imports</title>
<polygon fill="none" stroke="#000000" points="224,-78 224,-130 512,-130 512,-78 224,-78"/>
</g>
<g id="clust14" class="cluster">
<title>cluster_ClubModule_providers</title>
<polygon fill="none" stroke="#000000" points="16,-78 16,-130 216,-130 216,-78 16,-78"/>
</g>
<!-- ClubComponent -->
<g id="node1" class="node">
<title>ClubComponent</title>
<polygon fill="#ffffb3" stroke="#000000" points="1723.0605,-122 1614.9395,-122 1614.9395,-86 1723.0605,-86 1723.0605,-122"/>
<text text-anchor="middle" x="1669" y="-99.8" font-family="Times,serif" font-size="14.00" fill="#000000">ClubComponent</text>
</g>
<!-- ClubModule -->
<g id="node9" class="node">
<title>ClubModule</title>
<polygon fill="#8dd3c7" stroke="#000000" points="944.2773,-187 941.2773,-191 920.2773,-191 917.2773,-187 857.7227,-187 857.7227,-151 944.2773,-151 944.2773,-187"/>
<text text-anchor="middle" x="901" y="-164.8" font-family="Times,serif" font-size="14.00" fill="#000000">ClubModule</text>
</g>
<!-- ClubComponent&#45;&gt;ClubModule -->
<g id="edge1" class="edge">
<title>ClubComponent&#45;&gt;ClubModule</title>
<path fill="none" stroke="#000000" d="M1669,-122.0908C1669,-145.1328 1669,-182 1669,-182 1669,-182 954.4915,-182 954.4915,-182"/>
<polygon fill="#000000" stroke="#000000" points="954.4915,-178.5001 944.4915,-182 954.4915,-185.5001 954.4915,-178.5001"/>
</g>
<!-- ClubEditorComponent -->
<g id="node2" class="node">
<title>ClubEditorComponent</title>
<polygon fill="#ffffb3" stroke="#000000" points="1596.5547,-122 1453.4453,-122 1453.4453,-86 1596.5547,-86 1596.5547,-122"/>
<text text-anchor="middle" x="1525" y="-99.8" font-family="Times,serif" font-size="14.00" fill="#000000">ClubEditorComponent</text>
</g>
<!-- ClubEditorComponent&#45;&gt;ClubModule -->
<g id="edge2" class="edge">
<title>ClubEditorComponent&#45;&gt;ClubModule</title>
<path fill="none" stroke="#000000" d="M1525,-122.2843C1525,-143.3211 1525,-175 1525,-175 1525,-175 954.383,-175 954.383,-175"/>
<polygon fill="#000000" stroke="#000000" points="954.3831,-171.5001 944.383,-175 954.383,-178.5001 954.3831,-171.5001"/>
</g>
<!-- MediaComponent -->
<g id="node3" class="node">
<title>MediaComponent</title>
<polygon fill="#ffffb3" stroke="#000000" points="1435.5968,-122 1318.4032,-122 1318.4032,-86 1435.5968,-86 1435.5968,-122"/>
<text text-anchor="middle" x="1377" y="-99.8" font-family="Times,serif" font-size="14.00" fill="#000000">MediaComponent</text>
</g>
<!-- MediaComponent&#45;&gt;ClubModule -->
<g id="edge3" class="edge">
<title>MediaComponent&#45;&gt;ClubModule</title>
<path fill="none" stroke="#000000" d="M1377,-122.1061C1377,-141.3391 1377,-169 1377,-169 1377,-169 954.5037,-169 954.5037,-169"/>
<polygon fill="#000000" stroke="#000000" points="954.5037,-165.5001 944.5037,-169 954.5037,-172.5001 954.5037,-165.5001"/>
</g>
<!-- MemberEditorComponent -->
<g id="node4" class="node">
<title>MemberEditorComponent</title>
<polygon fill="#ffffb3" stroke="#000000" points="1300.752,-122 1137.248,-122 1137.248,-86 1300.752,-86 1300.752,-122"/>
<text text-anchor="middle" x="1219" y="-99.8" font-family="Times,serif" font-size="14.00" fill="#000000">MemberEditorComponent</text>
</g>
<!-- MemberEditorComponent&#45;&gt;ClubModule -->
<g id="edge4" class="edge">
<title>MemberEditorComponent&#45;&gt;ClubModule</title>
<path fill="none" stroke="#000000" d="M1219,-122.0225C1219,-139.3734 1219,-163 1219,-163 1219,-163 954.5498,-163 954.5498,-163"/>
<polygon fill="#000000" stroke="#000000" points="954.5498,-159.5001 944.5498,-163 954.5497,-166.5001 954.5498,-159.5001"/>
</g>
<!-- MembersComponent -->
<g id="node5" class="node">
<title>MembersComponent</title>
<polygon fill="#ffffb3" stroke="#000000" points="1119.2022,-122 984.7978,-122 984.7978,-86 1119.2022,-86 1119.2022,-122"/>
<text text-anchor="middle" x="1052" y="-99.8" font-family="Times,serif" font-size="14.00" fill="#000000">MembersComponent</text>
</g>
<!-- MembersComponent&#45;&gt;ClubModule -->
<g id="edge5" class="edge">
<title>MembersComponent&#45;&gt;ClubModule</title>
<path fill="none" stroke="#000000" d="M1052,-122.2396C1052,-137.5706 1052,-157 1052,-157 1052,-157 954.6755,-157 954.6755,-157"/>
<polygon fill="#000000" stroke="#000000" points="954.6755,-153.5001 944.6755,-157 954.6754,-160.5001 954.6755,-153.5001"/>
</g>
<!-- StatisticsComponent -->
<g id="node6" class="node">
<title>StatisticsComponent</title>
<polygon fill="#ffffb3" stroke="#000000" points="966.8864,-122 835.1136,-122 835.1136,-86 966.8864,-86 966.8864,-122"/>
<text text-anchor="middle" x="901" y="-99.8" font-family="Times,serif" font-size="14.00" fill="#000000">StatisticsComponent</text>
</g>
<!-- StatisticsComponent&#45;&gt;ClubModule -->
<g id="edge6" class="edge">
<title>StatisticsComponent&#45;&gt;ClubModule</title>
<path fill="none" stroke="#000000" d="M901,-122.1061C901,-122.1061 901,-140.991 901,-140.991"/>
<polygon fill="#000000" stroke="#000000" points="897.5001,-140.9909 901,-150.991 904.5001,-140.991 897.5001,-140.9909"/>
</g>
<!-- TroopEditorComponent -->
<g id="node7" class="node">
<title>TroopEditorComponent</title>
<polygon fill="#ffffb3" stroke="#000000" points="817.0407,-122 666.9593,-122 666.9593,-86 817.0407,-86 817.0407,-122"/>
<text text-anchor="middle" x="742" y="-99.8" font-family="Times,serif" font-size="14.00" fill="#000000">TroopEditorComponent</text>
</g>
<!-- TroopEditorComponent&#45;&gt;ClubModule -->
<g id="edge7" class="edge">
<title>TroopEditorComponent&#45;&gt;ClubModule</title>
<path fill="none" stroke="#000000" d="M742,-122.2396C742,-137.5706 742,-157 742,-157 742,-157 847.5526,-157 847.5526,-157"/>
<polygon fill="#000000" stroke="#000000" points="847.5526,-160.5001 857.5526,-157 847.5525,-153.5001 847.5526,-160.5001"/>
</g>
<!-- TroopsComponent -->
<g id="node8" class="node">
<title>TroopsComponent</title>
<polygon fill="#ffffb3" stroke="#000000" points="648.4902,-122 527.5098,-122 527.5098,-86 648.4902,-86 648.4902,-122"/>
<text text-anchor="middle" x="588" y="-99.8" font-family="Times,serif" font-size="14.00" fill="#000000">TroopsComponent</text>
</g>
<!-- TroopsComponent&#45;&gt;ClubModule -->
<g id="edge8" class="edge">
<title>TroopsComponent&#45;&gt;ClubModule</title>
<path fill="none" stroke="#000000" d="M588,-122.0225C588,-139.3734 588,-163 588,-163 588,-163 847.4787,-163 847.4787,-163"/>
<polygon fill="#000000" stroke="#000000" points="847.4787,-166.5001 857.4787,-163 847.4787,-159.5001 847.4787,-166.5001"/>
</g>
<!-- ConfigureSharedModule -->
<g id="node10" class="node">
<title>ConfigureSharedModule</title>
<polygon fill="#8dd3c7" stroke="#000000" points="503.6853,-122 500.6853,-126 479.6853,-126 476.6853,-122 348.3147,-122 348.3147,-86 503.6853,-86 503.6853,-122"/>
<text text-anchor="middle" x="426" y="-99.8" font-family="Times,serif" font-size="14.00" fill="#000000">ConfigureSharedModule</text>
</g>
<!-- ConfigureSharedModule&#45;&gt;ClubModule -->
<g id="edge9" class="edge">
<title>ConfigureSharedModule&#45;&gt;ClubModule</title>
<path fill="none" stroke="#000000" d="M426,-122.1061C426,-141.3391 426,-169 426,-169 426,-169 847.5877,-169 847.5877,-169"/>
<polygon fill="#000000" stroke="#000000" points="847.5877,-172.5001 857.5877,-169 847.5877,-165.5001 847.5877,-172.5001"/>
</g>
<!-- SharedModule -->
<g id="node11" class="node">
<title>SharedModule</title>
<polygon fill="#8dd3c7" stroke="#000000" points="330.4231,-122 327.4231,-126 306.4231,-126 303.4231,-122 231.5769,-122 231.5769,-86 330.4231,-86 330.4231,-122"/>
<text text-anchor="middle" x="281" y="-99.8" font-family="Times,serif" font-size="14.00" fill="#000000">SharedModule</text>
</g>
<!-- SharedModule&#45;&gt;ClubModule -->
<g id="edge10" class="edge">
<title>SharedModule&#45;&gt;ClubModule</title>
<path fill="none" stroke="#000000" d="M281,-122.2843C281,-143.3211 281,-175 281,-175 281,-175 847.4028,-175 847.4028,-175"/>
<polygon fill="#000000" stroke="#000000" points="847.4028,-178.5001 857.4028,-175 847.4028,-171.5001 847.4028,-178.5001"/>
</g>
<!-- MemberStateService -->
<g id="node12" class="node">
<title>MemberStateService</title>
<ellipse fill="#fdb462" stroke="#000000" cx="116" cy="-104" rx="92.0277" ry="18"/>
<text text-anchor="middle" x="116" y="-99.8" font-family="Times,serif" font-size="14.00" fill="#000000">MemberStateService</text>
</g>
<!-- MemberStateService&#45;&gt;ClubModule -->
<g id="edge11" class="edge">
<title>MemberStateService&#45;&gt;ClubModule</title>
<path fill="none" stroke="#000000" d="M116,-122.0908C116,-145.1328 116,-182 116,-182 116,-182 847.6768,-182 847.6768,-182"/>
<polygon fill="#000000" stroke="#000000" points="847.6769,-185.5001 857.6768,-182 847.6768,-178.5001 847.6769,-185.5001"/>
</g>
</g>
</svg>
