<?xml version="1.0" encoding="UTF-8" standalone="no"?>
<!DOCTYPE svg PUBLIC "-//W3C//DTD SVG 1.1//EN"
 "http://www.w3.org/Graphics/SVG/1.1/DTD/svg11.dtd">
<!-- Generated by graphviz version 2.40.1 (20161225.0304)
 -->
<!-- Title: dependencies Pages: 1 -->
<svg width="605pt" height="211pt"
 viewBox="0.00 0.00 605.00 211.00" xmlns="http://www.w3.org/2000/svg" xmlns:xlink="http://www.w3.org/1999/xlink">
<g id="graph0" class="graph" transform="scale(1 1) rotate(0) translate(4 207)">
<title>dependencies</title>
<polygon fill="#ffffff" stroke="transparent" points="-4,4 -4,-207 601,-207 601,4 -4,4"/>
<text text-anchor="start" x="277.5091" y="-42.4" font-family="sans-serif" font-weight="bold" font-size="14.00" fill="#000000">Legend</text>
<polygon fill="#ffffb3" stroke="transparent" points="64.5,-10 64.5,-30 84.5,-30 84.5,-10 64.5,-10"/>
<text text-anchor="start" x="88.129" y="-15.4" font-family="sans-serif" font-size="14.00" fill="#000000"> &#160;Declarations</text>
<polygon fill="#8dd3c7" stroke="transparent" points="177.5,-10 177.5,-30 197.5,-30 197.5,-10 177.5,-10"/>
<text text-anchor="start" x="201.2251" y="-15.4" font-family="sans-serif" font-size="14.00" fill="#000000"> &#160;Module</text>
<polygon fill="#80b1d3" stroke="transparent" points="263.5,-10 263.5,-30 283.5,-30 283.5,-10 263.5,-10"/>
<text text-anchor="start" x="287.2812" y="-15.4" font-family="sans-serif" font-size="14.00" fill="#000000"> &#160;Bootstrap</text>
<polygon fill="#fdb462" stroke="transparent" points="360.5,-10 360.5,-30 380.5,-30 380.5,-10 360.5,-10"/>
<text text-anchor="start" x="384.1732" y="-15.4" font-family="sans-serif" font-size="14.00" fill="#000000"> &#160;Providers</text>
<polygon fill="#fb8072" stroke="transparent" points="456.5,-10 456.5,-30 476.5,-30 476.5,-10 456.5,-10"/>
<text text-anchor="start" x="480.2258" y="-15.4" font-family="sans-serif" font-size="14.00" fill="#000000"> &#160;Exports</text>
<g id="clust1" class="cluster">
<title>cluster_UsersModule</title>
<polygon fill="none" stroke="#000000" stroke-dasharray="1,5" points="8,-70 8,-195 589,-195 589,-70 8,-70"/>
</g>
<g id="clust2" class="cluster">
<title>cluster_UsersModule_declarations</title>
<polygon fill="none" stroke="#000000" points="138,-78 138,-130 581,-130 581,-78 138,-78"/>
</g>
<g id="clust6" class="cluster">
<title>cluster_UsersModule_imports</title>
<polygon fill="none" stroke="#000000" points="16,-78 16,-130 130,-130 130,-78 16,-78"/>
</g>
<!-- PasswordComponent -->
<g id="node1" class="node">
<title>PasswordComponent</title>
<polygon fill="#ffffb3" stroke="#000000" points="573.486,-122 438.514,-122 438.514,-86 573.486,-86 573.486,-122"/>
<text text-anchor="middle" x="506" y="-99.8" font-family="Times,serif" font-size="14.00" fill="#000000">PasswordComponent</text>
</g>
<!-- UsersModule -->
<g id="node4" class="node">
<title>UsersModule</title>
<polygon fill="#8dd3c7" stroke="#000000" points="321.9218,-187 318.9218,-191 297.9218,-191 294.9218,-187 230.0782,-187 230.0782,-151 321.9218,-151 321.9218,-187"/>
<text text-anchor="middle" x="276" y="-164.8" font-family="Times,serif" font-size="14.00" fill="#000000">UsersModule</text>
</g>
<!-- PasswordComponent&#45;&gt;UsersModule -->
<g id="edge1" class="edge">
<title>PasswordComponent&#45;&gt;UsersModule</title>
<path fill="none" stroke="#000000" d="M506,-122.1061C506,-141.3391 506,-169 506,-169 506,-169 331.7156,-169 331.7156,-169"/>
<polygon fill="#000000" stroke="#000000" points="331.7156,-165.5001 321.7156,-169 331.7156,-172.5001 331.7156,-165.5001"/>
</g>
<!-- UserEditorComponent -->
<g id="node2" class="node">
<title>UserEditorComponent</title>
<polygon fill="#ffffb3" stroke="#000000" points="420.2534,-122 277.7466,-122 277.7466,-86 420.2534,-86 420.2534,-122"/>
<text text-anchor="middle" x="349" y="-99.8" font-family="Times,serif" font-size="14.00" fill="#000000">UserEditorComponent</text>
</g>
<!-- UserEditorComponent&#45;&gt;UsersModule -->
<g id="edge2" class="edge">
<title>UserEditorComponent&#45;&gt;UsersModule</title>
<path fill="none" stroke="#000000" d="M299.6669,-122.1061C299.6669,-122.1061 299.6669,-140.991 299.6669,-140.991"/>
<polygon fill="#000000" stroke="#000000" points="296.167,-140.9909 299.6669,-150.991 303.167,-140.991 296.167,-140.9909"/>
</g>
<!-- UsersComponent -->
<g id="node3" class="node">
<title>UsersComponent</title>
<polygon fill="#ffffb3" stroke="#000000" points="259.7036,-122 146.2964,-122 146.2964,-86 259.7036,-86 259.7036,-122"/>
<text text-anchor="middle" x="203" y="-99.8" font-family="Times,serif" font-size="14.00" fill="#000000">UsersComponent</text>
</g>
<!-- UsersComponent&#45;&gt;UsersModule -->
<g id="edge3" class="edge">
<title>UsersComponent&#45;&gt;UsersModule</title>
<path fill="none" stroke="#000000" d="M244.9457,-122.1061C244.9457,-122.1061 244.9457,-140.991 244.9457,-140.991"/>
<polygon fill="#000000" stroke="#000000" points="241.4457,-140.9909 244.9457,-150.991 248.4457,-140.991 241.4457,-140.9909"/>
</g>
<!-- SharedModule -->
<g id="node5" class="node">
<title>SharedModule</title>
<polygon fill="#8dd3c7" stroke="#000000" points="122.4231,-122 119.4231,-126 98.4231,-126 95.4231,-122 23.5769,-122 23.5769,-86 122.4231,-86 122.4231,-122"/>
<text text-anchor="middle" x="73" y="-99.8" font-family="Times,serif" font-size="14.00" fill="#000000">SharedModule</text>
</g>
<!-- SharedModule&#45;&gt;UsersModule -->
<g id="edge4" class="edge">
<title>SharedModule&#45;&gt;UsersModule</title>
<path fill="none" stroke="#000000" d="M73,-122.1061C73,-141.3391 73,-169 73,-169 73,-169 220.1897,-169 220.1897,-169"/>
<polygon fill="#000000" stroke="#000000" points="220.1898,-172.5001 230.1897,-169 220.1897,-165.5001 220.1898,-172.5001"/>
</g>
</g>
</svg>
