<?xml version="1.0" encoding="UTF-8" standalone="no"?>
<!DOCTYPE svg PUBLIC "-//W3C//DTD SVG 1.1//EN"
 "http://www.w3.org/Graphics/SVG/1.1/DTD/svg11.dtd">
<!-- Generated by graphviz version 2.40.1 (20161225.0304)
 -->
<!-- Title: dependencies Pages: 1 -->
<svg width="1479pt" height="211pt"
 viewBox="0.00 0.00 1479.00 211.00" xmlns="http://www.w3.org/2000/svg" xmlns:xlink="http://www.w3.org/1999/xlink">
<g id="graph0" class="graph" transform="scale(1 1) rotate(0) translate(4 207)">
<title>dependencies</title>
<polygon fill="#ffffff" stroke="transparent" points="-4,4 -4,-207 1475,-207 1475,4 -4,4"/>
<text text-anchor="start" x="714.5091" y="-42.4" font-family="sans-serif" font-weight="bold" font-size="14.00" fill="#000000">Legend</text>
<polygon fill="#ffffb3" stroke="transparent" points="501.5,-10 501.5,-30 521.5,-30 521.5,-10 501.5,-10"/>
<text text-anchor="start" x="525.129" y="-15.4" font-family="sans-serif" font-size="14.00" fill="#000000"> &#160;Declarations</text>
<polygon fill="#8dd3c7" stroke="transparent" points="614.5,-10 614.5,-30 634.5,-30 634.5,-10 614.5,-10"/>
<text text-anchor="start" x="638.2251" y="-15.4" font-family="sans-serif" font-size="14.00" fill="#000000"> &#160;Module</text>
<polygon fill="#80b1d3" stroke="transparent" points="700.5,-10 700.5,-30 720.5,-30 720.5,-10 700.5,-10"/>
<text text-anchor="start" x="724.2812" y="-15.4" font-family="sans-serif" font-size="14.00" fill="#000000"> &#160;Bootstrap</text>
<polygon fill="#fdb462" stroke="transparent" points="797.5,-10 797.5,-30 817.5,-30 817.5,-10 797.5,-10"/>
<text text-anchor="start" x="821.1732" y="-15.4" font-family="sans-serif" font-size="14.00" fill="#000000"> &#160;Providers</text>
<polygon fill="#fb8072" stroke="transparent" points="893.5,-10 893.5,-30 913.5,-30 913.5,-10 893.5,-10"/>
<text text-anchor="start" x="917.2258" y="-15.4" font-family="sans-serif" font-size="14.00" fill="#000000"> &#160;Exports</text>
<g id="clust1" class="cluster">
<title>cluster_ConfigureModule</title>
<polygon fill="none" stroke="#000000" stroke-dasharray="1,5" points="8,-70 8,-195 1463,-195 1463,-70 8,-70"/>
</g>
<g id="clust2" class="cluster">
<title>cluster_ConfigureModule_declarations</title>
<polygon fill="none" stroke="#000000" points="927,-78 927,-130 1455,-130 1455,-78 927,-78"/>
</g>
<g id="clust6" class="cluster">
<title>cluster_ConfigureModule_imports</title>
<polygon fill="none" stroke="#000000" points="16,-78 16,-130 919,-130 919,-78 16,-78"/>
</g>
<!-- ConfigureComponent -->
<g id="node1" class="node">
<title>ConfigureComponent</title>
<polygon fill="#ffffb3" stroke="#000000" points="1447.0954,-122 1308.9046,-122 1308.9046,-86 1447.0954,-86 1447.0954,-122"/>
<text text-anchor="middle" x="1378" y="-99.8" font-family="Times,serif" font-size="14.00" fill="#000000">ConfigureComponent</text>
</g>
<!-- ConfigureModule -->
<g id="node4" class="node">
<title>ConfigureModule</title>
<polygon fill="#8dd3c7" stroke="#000000" points="720.3132,-187 717.3132,-191 696.3132,-191 693.3132,-187 603.6868,-187 603.6868,-151 720.3132,-151 720.3132,-187"/>
<text text-anchor="middle" x="662" y="-164.8" font-family="Times,serif" font-size="14.00" fill="#000000">ConfigureModule</text>
</g>
<!-- ConfigureComponent&#45;&gt;ConfigureModule -->
<g id="edge1" class="edge">
<title>ConfigureComponent&#45;&gt;ConfigureModule</title>
<path fill="none" stroke="#000000" d="M1378,-122.0109C1378,-144.4852 1378,-180 1378,-180 1378,-180 730.2897,-180 730.2897,-180"/>
<polygon fill="#000000" stroke="#000000" points="730.2897,-176.5001 720.2897,-180 730.2897,-183.5001 730.2897,-176.5001"/>
</g>
<!-- ConfigureDisplayComponent -->
<g id="node2" class="node">
<title>ConfigureDisplayComponent</title>
<polygon fill="#ffffb3" stroke="#000000" points="1290.6428,-122 1109.3572,-122 1109.3572,-86 1290.6428,-86 1290.6428,-122"/>
<text text-anchor="middle" x="1200" y="-99.8" font-family="Times,serif" font-size="14.00" fill="#000000">ConfigureDisplayComponent</text>
</g>
<!-- ConfigureDisplayComponent&#45;&gt;ConfigureModule -->
<g id="edge2" class="edge">
<title>ConfigureDisplayComponent&#45;&gt;ConfigureModule</title>
<path fill="none" stroke="#000000" d="M1200,-122.1289C1200,-142.5724 1200,-173 1200,-173 1200,-173 730.3429,-173 730.3429,-173"/>
<polygon fill="#000000" stroke="#000000" points="730.3429,-169.5001 720.3429,-173 730.3428,-176.5001 730.3429,-169.5001"/>
</g>
<!-- MacroDialogComponent -->
<g id="node3" class="node">
<title>MacroDialogComponent</title>
<polygon fill="#ffffb3" stroke="#000000" points="1090.9692,-122 935.0308,-122 935.0308,-86 1090.9692,-86 1090.9692,-122"/>
<text text-anchor="middle" x="1013" y="-99.8" font-family="Times,serif" font-size="14.00" fill="#000000">MacroDialogComponent</text>
</g>
<!-- MacroDialogComponent&#45;&gt;ConfigureModule -->
<g id="edge3" class="edge">
<title>MacroDialogComponent&#45;&gt;ConfigureModule</title>
<path fill="none" stroke="#000000" d="M1013,-122.2667C1013,-140.5552 1013,-166 1013,-166 1013,-166 730.3545,-166 730.3545,-166"/>
<polygon fill="#000000" stroke="#000000" points="730.3546,-162.5001 720.3545,-166 730.3545,-169.5001 730.3546,-162.5001"/>
</g>
<!-- AdvancedModule -->
<g id="node5" class="node">
<title>AdvancedModule</title>
<polygon fill="#8dd3c7" stroke="#000000" points="911.3006,-122 908.3006,-126 887.3006,-126 884.3006,-122 794.6994,-122 794.6994,-86 911.3006,-86 911.3006,-122"/>
<text text-anchor="middle" x="853" y="-99.8" font-family="Times,serif" font-size="14.00" fill="#000000">AdvancedModule</text>
</g>
<!-- AdvancedModule&#45;&gt;ConfigureModule -->
<g id="edge4" class="edge">
<title>AdvancedModule&#45;&gt;ConfigureModule</title>
<path fill="none" stroke="#000000" d="M853,-122.0091C853,-138.0494 853,-159 853,-159 853,-159 730.3441,-159 730.3441,-159"/>
<polygon fill="#000000" stroke="#000000" points="730.3442,-155.5001 720.3441,-159 730.3441,-162.5001 730.3442,-155.5001"/>
</g>
<!-- ClubModule -->
<g id="node6" class="node">
<title>ClubModule</title>
<polygon fill="#8dd3c7" stroke="#000000" points="776.2773,-122 773.2773,-126 752.2773,-126 749.2773,-122 689.7227,-122 689.7227,-86 776.2773,-86 776.2773,-122"/>
<text text-anchor="middle" x="733" y="-99.8" font-family="Times,serif" font-size="14.00" fill="#000000">ClubModule</text>
</g>
<!-- ClubModule&#45;&gt;ConfigureModule -->
<g id="edge5" class="edge">
<title>ClubModule&#45;&gt;ConfigureModule</title>
<path fill="none" stroke="#000000" d="M704.8839,-122.1061C704.8839,-122.1061 704.8839,-140.991 704.8839,-140.991"/>
<polygon fill="#000000" stroke="#000000" points="701.384,-140.9909 704.8839,-150.991 708.384,-140.991 701.384,-140.9909"/>
</g>
<!-- ConfigureRoutingModule -->
<g id="node7" class="node">
<title>ConfigureRoutingModule</title>
<polygon fill="#8dd3c7" stroke="#000000" points="671.9312,-122 668.9312,-126 647.9312,-126 644.9312,-122 510.0688,-122 510.0688,-86 671.9312,-86 671.9312,-122"/>
<text text-anchor="middle" x="591" y="-99.8" font-family="Times,serif" font-size="14.00" fill="#000000">ConfigureRoutingModule</text>
</g>
<!-- ConfigureRoutingModule&#45;&gt;ConfigureModule -->
<g id="edge6" class="edge">
<title>ConfigureRoutingModule&#45;&gt;ConfigureModule</title>
<path fill="none" stroke="#000000" d="M637.7795,-122.1061C637.7795,-122.1061 637.7795,-140.991 637.7795,-140.991"/>
<polygon fill="#000000" stroke="#000000" points="634.2795,-140.9909 637.7795,-150.991 641.2795,-140.991 634.2795,-140.9909"/>
</g>
<!-- SharedModule -->
<g id="node8" class="node">
<title>SharedModule</title>
<polygon fill="#8dd3c7" stroke="#000000" points="492.4231,-122 489.4231,-126 468.4231,-126 465.4231,-122 393.5769,-122 393.5769,-86 492.4231,-86 492.4231,-122"/>
<text text-anchor="middle" x="443" y="-99.8" font-family="Times,serif" font-size="14.00" fill="#000000">SharedModule</text>
</g>
<!-- SharedModule&#45;&gt;ConfigureModule -->
<g id="edge7" class="edge">
<title>SharedModule&#45;&gt;ConfigureModule</title>
<path fill="none" stroke="#000000" d="M443,-122.0091C443,-138.0494 443,-159 443,-159 443,-159 593.5997,-159 593.5997,-159"/>
<polygon fill="#000000" stroke="#000000" points="593.5997,-162.5001 603.5997,-159 593.5997,-155.5001 593.5997,-162.5001"/>
</g>
<!-- TournamentModule -->
<g id="node9" class="node">
<title>TournamentModule</title>
<polygon fill="#8dd3c7" stroke="#000000" points="375.9734,-122 372.9734,-126 351.9734,-126 348.9734,-122 248.0266,-122 248.0266,-86 375.9734,-86 375.9734,-122"/>
<text text-anchor="middle" x="312" y="-99.8" font-family="Times,serif" font-size="14.00" fill="#000000">TournamentModule</text>
</g>
<!-- TournamentModule&#45;&gt;ConfigureModule -->
<g id="edge8" class="edge">
<title>TournamentModule&#45;&gt;ConfigureModule</title>
<path fill="none" stroke="#000000" d="M312,-122.2667C312,-140.5552 312,-166 312,-166 312,-166 593.8117,-166 593.8117,-166"/>
<polygon fill="#000000" stroke="#000000" points="593.8118,-169.5001 603.8117,-166 593.8117,-162.5001 593.8118,-169.5001"/>
</g>
<!-- UsersModule -->
<g id="node10" class="node">
<title>UsersModule</title>
<polygon fill="#8dd3c7" stroke="#000000" points="229.9218,-122 226.9218,-126 205.9218,-126 202.9218,-122 138.0782,-122 138.0782,-86 229.9218,-86 229.9218,-122"/>
<text text-anchor="middle" x="184" y="-99.8" font-family="Times,serif" font-size="14.00" fill="#000000">UsersModule</text>
</g>
<!-- UsersModule&#45;&gt;ConfigureModule -->
<g id="edge9" class="edge">
<title>UsersModule&#45;&gt;ConfigureModule</title>
<path fill="none" stroke="#000000" d="M184,-122.1289C184,-142.5724 184,-173 184,-173 184,-173 593.3878,-173 593.3878,-173"/>
<polygon fill="#000000" stroke="#000000" points="593.3879,-176.5001 603.3878,-173 593.3878,-169.5001 593.3879,-176.5001"/>
</g>
<!-- VenueModule -->
<g id="node11" class="node">
<title>VenueModule</title>
<polygon fill="#8dd3c7" stroke="#000000" points="120.0856,-122 117.0856,-126 96.0856,-126 93.0856,-122 23.9144,-122 23.9144,-86 120.0856,-86 120.0856,-122"/>
<text text-anchor="middle" x="72" y="-99.8" font-family="Times,serif" font-size="14.00" fill="#000000">VenueModule</text>
</g>
<!-- VenueModule&#45;&gt;ConfigureModule -->
<g id="edge10" class="edge">
<title>VenueModule&#45;&gt;ConfigureModule</title>
<path fill="none" stroke="#000000" d="M72,-122.0109C72,-144.4852 72,-180 72,-180 72,-180 593.8138,-180 593.8138,-180"/>
<polygon fill="#000000" stroke="#000000" points="593.8139,-183.5001 603.8138,-180 593.8138,-176.5001 593.8139,-183.5001"/>
</g>
</g>
</svg>
