<?xml version="1.0" encoding="UTF-8" standalone="no"?>
<!DOCTYPE svg PUBLIC "-//W3C//DTD SVG 1.1//EN"
 "http://www.w3.org/Graphics/SVG/1.1/DTD/svg11.dtd">
<!-- Generated by graphviz version 2.40.1 (20161225.0304)
 -->
<!-- Title: dependencies Pages: 1 -->
<svg width="665pt" height="284pt"
 viewBox="0.00 0.00 665.00 284.00" xmlns="http://www.w3.org/2000/svg" xmlns:xlink="http://www.w3.org/1999/xlink">
<g id="graph0" class="graph" transform="scale(1 1) rotate(0) translate(4 280)">
<title>dependencies</title>
<polygon fill="#ffffff" stroke="transparent" points="-4,4 -4,-280 661,-280 661,4 -4,4"/>
<text text-anchor="start" x="307.5091" y="-42.4" font-family="sans-serif" font-weight="bold" font-size="14.00" fill="#000000">Legend</text>
<polygon fill="#ffffb3" stroke="transparent" points="94.5,-10 94.5,-30 114.5,-30 114.5,-10 94.5,-10"/>
<text text-anchor="start" x="118.129" y="-15.4" font-family="sans-serif" font-size="14.00" fill="#000000"> &#160;Declarations</text>
<polygon fill="#8dd3c7" stroke="transparent" points="207.5,-10 207.5,-30 227.5,-30 227.5,-10 207.5,-10"/>
<text text-anchor="start" x="231.2251" y="-15.4" font-family="sans-serif" font-size="14.00" fill="#000000"> &#160;Module</text>
<polygon fill="#80b1d3" stroke="transparent" points="293.5,-10 293.5,-30 313.5,-30 313.5,-10 293.5,-10"/>
<text text-anchor="start" x="317.2812" y="-15.4" font-family="sans-serif" font-size="14.00" fill="#000000"> &#160;Bootstrap</text>
<polygon fill="#fdb462" stroke="transparent" points="390.5,-10 390.5,-30 410.5,-30 410.5,-10 390.5,-10"/>
<text text-anchor="start" x="414.1732" y="-15.4" font-family="sans-serif" font-size="14.00" fill="#000000"> &#160;Providers</text>
<polygon fill="#fb8072" stroke="transparent" points="486.5,-10 486.5,-30 506.5,-30 506.5,-10 486.5,-10"/>
<text text-anchor="start" x="510.2258" y="-15.4" font-family="sans-serif" font-size="14.00" fill="#000000"> &#160;Exports</text>
<g id="clust1" class="cluster">
<title>cluster_DisciplinesModule</title>
<polygon fill="none" stroke="#000000" stroke-dasharray="1,5" points="8,-70 8,-268 649,-268 649,-70 8,-70"/>
</g>
<g id="clust2" class="cluster">
<title>cluster_DisciplinesModule_declarations</title>
<polygon fill="none" stroke="#000000" points="289,-78 289,-130 641,-130 641,-78 289,-78"/>
</g>
<g id="clust5" class="cluster">
<title>cluster_DisciplinesModule_imports</title>
<polygon fill="none" stroke="#000000" points="16,-78 16,-130 281,-130 281,-78 16,-78"/>
</g>
<g id="clust6" class="cluster">
<title>cluster_DisciplinesModule_exports</title>
<polygon fill="none" stroke="#000000" points="113,-208 113,-260 473,-260 473,-208 113,-208"/>
</g>
<!-- DisciplineEditorComponent -->
<g id="node1" class="node">
<title>DisciplineEditorComponent</title>
<polygon fill="#ffffb3" stroke="#000000" points="632.8696,-122 459.1304,-122 459.1304,-86 632.8696,-86 632.8696,-122"/>
<text text-anchor="middle" x="546" y="-99.8" font-family="Times,serif" font-size="14.00" fill="#000000">DisciplineEditorComponent</text>
</g>
<!-- DisciplinesModule -->
<g id="node3" class="node">
<title>DisciplinesModule</title>
<polygon fill="#8dd3c7" stroke="#000000" points="346.0381,-187 343.0381,-191 322.0381,-191 319.0381,-187 223.9619,-187 223.9619,-151 346.0381,-151 346.0381,-187"/>
<text text-anchor="middle" x="285" y="-164.8" font-family="Times,serif" font-size="14.00" fill="#000000">DisciplinesModule</text>
</g>
<!-- DisciplineEditorComponent&#45;&gt;DisciplinesModule -->
<g id="edge1" class="edge">
<title>DisciplineEditorComponent&#45;&gt;DisciplinesModule</title>
<path fill="none" stroke="#000000" d="M548.8098,-122.1061C548.8098,-141.3391 548.8098,-169 548.8098,-169 548.8098,-169 356.1864,-169 356.1864,-169"/>
<polygon fill="#000000" stroke="#000000" points="356.1864,-165.5001 346.1864,-169 356.1863,-172.5001 356.1864,-165.5001"/>
</g>
<!-- DisciplinesComponent -->
<g id="node2" class="node">
<title>DisciplinesComponent</title>
<polygon fill="#ffffb3" stroke="#000000" points="441.3202,-122 296.6798,-122 296.6798,-86 441.3202,-86 441.3202,-122"/>
<text text-anchor="middle" x="369" y="-99.8" font-family="Times,serif" font-size="14.00" fill="#000000">DisciplinesComponent</text>
</g>
<!-- DisciplinesComponent&#45;&gt;DisciplinesModule -->
<g id="edge2" class="edge">
<title>DisciplinesComponent&#45;&gt;DisciplinesModule</title>
<path fill="none" stroke="#000000" d="M321.5544,-122.1061C321.5544,-122.1061 321.5544,-140.991 321.5544,-140.991"/>
<polygon fill="#000000" stroke="#000000" points="318.0544,-140.9909 321.5544,-150.991 325.0544,-140.991 318.0544,-140.9909"/>
</g>
<!-- DisciplineEditorComponent  -->
<g id="node6" class="node">
<title>DisciplineEditorComponent </title>
<polygon fill="#fb8072" stroke="#000000" points="464.87,-252 287.13,-252 287.13,-216 464.87,-216 464.87,-252"/>
<text text-anchor="middle" x="376" y="-229.8" font-family="Times,serif" font-size="14.00" fill="#000000">DisciplineEditorComponent </text>
</g>
<!-- DisciplinesModule&#45;&gt;DisciplineEditorComponent  -->
<g id="edge5" class="edge">
<title>DisciplinesModule&#45;&gt;DisciplineEditorComponent </title>
<path fill="none" stroke="#000000" stroke-dasharray="5,2" d="M316.7919,-187.1061C316.7919,-187.1061 316.7919,-205.991 316.7919,-205.991"/>
<polygon fill="#000000" stroke="#000000" points="313.292,-205.9909 316.7919,-215.991 320.292,-205.991 313.292,-205.9909"/>
</g>
<!-- DisciplinesComponent  -->
<g id="node7" class="node">
<title>DisciplinesComponent </title>
<polygon fill="#fb8072" stroke="#000000" points="268.8199,-252 121.1801,-252 121.1801,-216 268.8199,-216 268.8199,-252"/>
<text text-anchor="middle" x="195" y="-229.8" font-family="Times,serif" font-size="14.00" fill="#000000">DisciplinesComponent </text>
</g>
<!-- DisciplinesModule&#45;&gt;DisciplinesComponent  -->
<g id="edge6" class="edge">
<title>DisciplinesModule&#45;&gt;DisciplinesComponent </title>
<path fill="none" stroke="#000000" stroke-dasharray="5,2" d="M246.3207,-187.1061C246.3207,-187.1061 246.3207,-205.991 246.3207,-205.991"/>
<polygon fill="#000000" stroke="#000000" points="242.8207,-205.9909 246.3207,-215.991 249.8207,-205.991 242.8207,-205.9909"/>
</g>
<!-- ScoreSystemModule -->
<g id="node4" class="node">
<title>ScoreSystemModule</title>
<polygon fill="#8dd3c7" stroke="#000000" points="273.1457,-122 270.1457,-126 249.1457,-126 246.1457,-122 140.8543,-122 140.8543,-86 273.1457,-86 273.1457,-122"/>
<text text-anchor="middle" x="207" y="-99.8" font-family="Times,serif" font-size="14.00" fill="#000000">ScoreSystemModule</text>
</g>
<!-- ScoreSystemModule&#45;&gt;DisciplinesModule -->
<g id="edge3" class="edge">
<title>ScoreSystemModule&#45;&gt;DisciplinesModule</title>
<path fill="none" stroke="#000000" d="M248.527,-122.1061C248.527,-122.1061 248.527,-140.991 248.527,-140.991"/>
<polygon fill="#000000" stroke="#000000" points="245.0271,-140.9909 248.527,-150.991 252.0271,-140.991 245.0271,-140.9909"/>
</g>
<!-- SharedModule -->
<g id="node5" class="node">
<title>SharedModule</title>
<polygon fill="#8dd3c7" stroke="#000000" points="122.4231,-122 119.4231,-126 98.4231,-126 95.4231,-122 23.5769,-122 23.5769,-86 122.4231,-86 122.4231,-122"/>
<text text-anchor="middle" x="73" y="-99.8" font-family="Times,serif" font-size="14.00" fill="#000000">SharedModule</text>
</g>
<!-- SharedModule&#45;&gt;DisciplinesModule -->
<g id="edge4" class="edge">
<title>SharedModule&#45;&gt;DisciplinesModule</title>
<path fill="none" stroke="#000000" d="M72.4395,-122.1061C72.4395,-141.3391 72.4395,-169 72.4395,-169 72.4395,-169 213.8039,-169 213.8039,-169"/>
<polygon fill="#000000" stroke="#000000" points="213.8039,-172.5001 223.8039,-169 213.8038,-165.5001 213.8039,-172.5001"/>
</g>
</g>
</svg>
