<?xml version="1.0" encoding="UTF-8" standalone="no"?>
<!DOCTYPE svg PUBLIC "-//W3C//DTD SVG 1.1//EN"
 "http://www.w3.org/Graphics/SVG/1.1/DTD/svg11.dtd">
<!-- Generated by graphviz version 2.40.1 (20161225.0304)
 -->
<!-- Title: dependencies Pages: 1 -->
<svg width="504pt" height="211pt"
 viewBox="0.00 0.00 504.00 211.00" xmlns="http://www.w3.org/2000/svg" xmlns:xlink="http://www.w3.org/1999/xlink">
<g id="graph0" class="graph" transform="scale(1 1) rotate(0) translate(4 207)">
<title>dependencies</title>
<polygon fill="#ffffff" stroke="transparent" points="-4,4 -4,-207 500,-207 500,4 -4,4"/>
<text text-anchor="start" x="227.0091" y="-42.4" font-family="sans-serif" font-weight="bold" font-size="14.00" fill="#000000">Legend</text>
<polygon fill="#ffffb3" stroke="transparent" points="14,-10 14,-30 34,-30 34,-10 14,-10"/>
<text text-anchor="start" x="37.629" y="-15.4" font-family="sans-serif" font-size="14.00" fill="#000000"> &#160;Declarations</text>
<polygon fill="#8dd3c7" stroke="transparent" points="127,-10 127,-30 147,-30 147,-10 127,-10"/>
<text text-anchor="start" x="150.7251" y="-15.4" font-family="sans-serif" font-size="14.00" fill="#000000"> &#160;Module</text>
<polygon fill="#80b1d3" stroke="transparent" points="213,-10 213,-30 233,-30 233,-10 213,-10"/>
<text text-anchor="start" x="236.7812" y="-15.4" font-family="sans-serif" font-size="14.00" fill="#000000"> &#160;Bootstrap</text>
<polygon fill="#fdb462" stroke="transparent" points="310,-10 310,-30 330,-30 330,-10 310,-10"/>
<text text-anchor="start" x="333.6732" y="-15.4" font-family="sans-serif" font-size="14.00" fill="#000000"> &#160;Providers</text>
<polygon fill="#fb8072" stroke="transparent" points="406,-10 406,-30 426,-30 426,-10 406,-10"/>
<text text-anchor="start" x="429.7258" y="-15.4" font-family="sans-serif" font-size="14.00" fill="#000000"> &#160;Exports</text>
<g id="clust1" class="cluster">
<title>cluster_VenueModule</title>
<polygon fill="none" stroke="#000000" stroke-dasharray="1,5" points="27,-70 27,-195 469,-195 469,-70 27,-70"/>
</g>
<g id="clust2" class="cluster">
<title>cluster_VenueModule_declarations</title>
<polygon fill="none" stroke="#000000" points="157,-78 157,-130 461,-130 461,-78 157,-78"/>
</g>
<g id="clust5" class="cluster">
<title>cluster_VenueModule_imports</title>
<polygon fill="none" stroke="#000000" points="35,-78 35,-130 149,-130 149,-78 35,-78"/>
</g>
<!-- VenueComponent -->
<g id="node1" class="node">
<title>VenueComponent</title>
<polygon fill="#ffffb3" stroke="#000000" points="452.8683,-122 335.1317,-122 335.1317,-86 452.8683,-86 452.8683,-122"/>
<text text-anchor="middle" x="394" y="-99.8" font-family="Times,serif" font-size="14.00" fill="#000000">VenueComponent</text>
</g>
<!-- VenueModule -->
<g id="node3" class="node">
<title>VenueModule</title>
<polygon fill="#8dd3c7" stroke="#000000" points="289.0856,-187 286.0856,-191 265.0856,-191 262.0856,-187 192.9144,-187 192.9144,-151 289.0856,-151 289.0856,-187"/>
<text text-anchor="middle" x="241" y="-164.8" font-family="Times,serif" font-size="14.00" fill="#000000">VenueModule</text>
</g>
<!-- VenueComponent&#45;&gt;VenueModule -->
<g id="edge1" class="edge">
<title>VenueComponent&#45;&gt;VenueModule</title>
<path fill="none" stroke="#000000" d="M394,-122.1061C394,-141.3391 394,-169 394,-169 394,-169 299.4102,-169 299.4102,-169"/>
<polygon fill="#000000" stroke="#000000" points="299.4102,-165.5001 289.4102,-169 299.4101,-172.5001 299.4102,-165.5001"/>
</g>
<!-- VenueEditorComponent -->
<g id="node2" class="node">
<title>VenueEditorComponent</title>
<polygon fill="#ffffb3" stroke="#000000" points="317.3627,-122 164.6373,-122 164.6373,-86 317.3627,-86 317.3627,-122"/>
<text text-anchor="middle" x="241" y="-99.8" font-family="Times,serif" font-size="14.00" fill="#000000">VenueEditorComponent</text>
</g>
<!-- VenueEditorComponent&#45;&gt;VenueModule -->
<g id="edge2" class="edge">
<title>VenueEditorComponent&#45;&gt;VenueModule</title>
<path fill="none" stroke="#000000" d="M241,-122.1061C241,-122.1061 241,-140.991 241,-140.991"/>
<polygon fill="#000000" stroke="#000000" points="237.5001,-140.9909 241,-150.991 244.5001,-140.991 237.5001,-140.9909"/>
</g>
<!-- SharedModule -->
<g id="node4" class="node">
<title>SharedModule</title>
<polygon fill="#8dd3c7" stroke="#000000" points="141.4231,-122 138.4231,-126 117.4231,-126 114.4231,-122 42.5769,-122 42.5769,-86 141.4231,-86 141.4231,-122"/>
<text text-anchor="middle" x="92" y="-99.8" font-family="Times,serif" font-size="14.00" fill="#000000">SharedModule</text>
</g>
<!-- SharedModule&#45;&gt;VenueModule -->
<g id="edge3" class="edge">
<title>SharedModule&#45;&gt;VenueModule</title>
<path fill="none" stroke="#000000" d="M92,-122.1061C92,-141.3391 92,-169 92,-169 92,-169 182.624,-169 182.624,-169"/>
<polygon fill="#000000" stroke="#000000" points="182.624,-172.5001 192.624,-169 182.6239,-165.5001 182.624,-172.5001"/>
</g>
</g>
</svg>
