<svg version="1" xmlns="http://www.w3.org/2000/svg" width="933.333" height="933.333" viewBox="0 0 700.000000 700.000000"><path d="M341.3 40.6c-1 2.5-1 23.8 0 28.7.4 2.2 1.2 5.9 1.9 8.4 1.1 4.4.6 46.2-.7 54.3-.3 1.9-.8 4.9-1.1 6.7-.3 2.1-1.6 4-3.7 5.5-1.8 1.2-3.3 2.6-3.5 3-.2.4-.8.8-1.4.8-3.1 0-6.8 7.6-7.3 15-.5 6.2 1.2 13.1 7.4 30 1.7 4.7 3.1 9.9 3.1 11.7 0 2.7-3.9 13.2-6.9 18.4-.9 1.5-2.3 8.3-5.6 26.9-1.9 10.6-4.8 16.6-9.9 20.5-4.1 3.1-8.5 3.4-17.1 1.1-8.1-2.1-14.5-2.5-20.4-1.4-4.4.9-5.6.7-14.2-2.8-5.2-2-13.8-5-19.2-6.6-13.4-3.9-18.5-6.7-27.4-15.1-4.2-4-9.5-8.9-11.7-11.1-8.7-8.2-23.3-19.6-25.2-19.6-.3 0-1.8-.8-3.2-1.8-1.5-1-8.1-4.7-14.7-8.2-22.2-11.6-24-12.9-29.9-22.3-3.2-4.9-4.1-5.7-6.9-5.8-4.2-.1-11.2-1.1-18.2-2.6-1.1-.2-5.2-.6-9.2-.8-5.4-.3-7.4-.1-8.3 1-1 1.2-1 1.8.1 3.1 1.9 2.4 22.5 16 34.4 22.9 18.7 10.7 26 16.6 53.5 43.1 21.2 20.4 27.8 26.5 33.1 30.6 3 2.4 12 9.7 19.9 16.4 8 6.6 17.4 14.1 21 16.6 3.6 2.5 7.5 5.6 8.6 6.9 3.2 3.5 5.2 10.3 5.9 20 .7 9.8 1.4 17.7 2 23.4.3 2.2.7 6.7 1 10 .8 7.7 1.3 11.1 3.1 21.5 3.4 19.4 3.5 19.9 1.9 34.5-.3 2.7-.7 6.1-1 7.4-.2 1.3-.7 6.3-1.1 11-1.3 17.3-.3 15.7-14 23.6-6.6 3.8-15.2 9-19 11.5-9.2 5.9-11.5 6.9-21.3 9.1-9.5 2.1-12.8 3.9-14.2 7.6-1.8 4.7-1.2 8.7 2 15.3 1.7 3.6 4.1 10 5.2 14.4 3.4 13.2 7.5 20.2 11.6 19.4 2-.4 2.3-2.5 1-8.3-1.2-5.6-1.1-16.2.2-21.1.6-2.3 2.2-5.2 3.5-6.5 3.1-3.1 25.2-14.1 44.8-22.2l3.8-1.6 2 6.7c4.4 14 5.3 24.7 3.6 39.4-.6 5.1.6 9.6 2.6 10.2 18.8 5.4 25.2 6.7 31.5 6.5 3.8-.1 8.2-.7 9.6-1.3 2.5-1 2.5-1.2.9-3.1-.9-1.1-4-3.9-6.7-6.1-14.1-11.7-19.6-18.7-22.6-28.9-1.3-4.1-2.1-26.7-1.1-28.3.5-.7 5.4-2.1 10.9-3.1 5.5-1.1 15.4-4 21.9-6.4 6.6-2.5 18.9-6.8 27.6-9.6 8.6-2.8 20-7.1 25.4-9.6 13.9-6.5 17.2-7.3 21.5-5.1 4.5 2.4 15.4 3.2 23 1.7 3.4-.7 13.3-3.4 22-6.1 8.7-2.7 18.3-5.1 21.2-5.4l5.4-.6-.1 11.3c0 12.6.4 16.9 3.4 31.2 1.1 5.5 2.3 11.6 2.6 13.5.2 1.9.7 4.6 1 6 1.5 6.6 1.2 18.4-.6 25.3-2.6 10.5-3.1 14.3-2 17.1 1.1 3 3 3.4 18 4.1 6.3.3 13.1.8 15 1.1 7.7 1.3 22.8 1.6 23.4.5 1.4-2.3-.6-4.7-8.1-9.6-9.3-6-16-12.4-21-20.2l-3.8-5.8.1-11.5c0-10.8 1-30.4 1.9-37.4 2.1-17.1 2.7-42.3 1-48.6-3.2-12-5.7-13.1-29.3-13-19.1.2-22.9.4-33.9 1.4-6.2.6-7.3.5-7.3-.8 0-2.5 4.8-12.6 9.2-19.4 2.2-3.5 6.8-11.8 10.2-18.5l6.1-12.1 12-4.1c23.5-8.1 28.2-9.9 41.7-15.6 7.6-3.2 15-6.1 16.5-6.4 10-1.8 9.6-1.6 30.6-12.1 11.3-5.6 21.1-9.7 24.5-10.4 8.4-1.7 16.2-4.2 16.2-5.3 0-.5-1.1-.7-2.5-.5-3.6.7-2-1 3.3-3.4 7.6-3.6 16.2-8.8 16.2-9.9 0-.7-1.8-.8-5.2-.4-2.9.4-6.4.9-7.8 1-3.7.4-14 2.9-27.5 6.8-6.6 1.9-14.9 3.8-18.5 4.1-12.9 1.3-23.7 3.8-31.4 7.3-6.2 2.8-10.7 3.9-21 5.4-14.1 1.9-17.6 2.5-20.4 3.3-1.7.5-4.7.8-16.7 2.1-7.4.8-9.2 1.1-12.9 2-3.7 1-4.7-.6-3.3-5.3 1.1-3.3 7.5-9.2 10.1-9.2 1.6 0 6.6-4.8 6.6-6.3 0-.7-.4-2.8-.9-4.7-1.9-6.8-1.9-11.4 0-14.1 1.7-2.4 1.7-2.7 0-5.5-3.3-5.5-4.4-10.2-3.1-13.4 1.6-3.9.5-6.6-4.6-11.6-4.3-4.2-11.6-7.4-17.1-7.4-4.2 0-11.7 2.3-14.5 4.3-1.5 1.2-3.1 1.8-3.4 1.4-.3-.3-.8-4.4-1-9.1l-.3-8.5 15.7-9.9c17.6-11.1 30.2-17.8 35.3-18.6 1.9-.3 4.6-.8 6-1 2.3-.4 11.2.9 19.9 2.8 1.4.3 3.4.3 4.5 0 1.7-.6 1.3-1.2-3-5-6.4-5.5-5.9-6.4 6.4-12.6 5.2-2.5 10.1-5.4 11-6.3 1.5-1.6 1-1.7-7.4-1.2-12 .8-17.5 2.4-35.1 10.3-8.1 3.6-15.5 6.8-16.4 7-.8.2-5.4 1.5-10.3 2.8-4.8 1.4-9.1 2.5-9.5 2.5-.4 0-4 .8-8 1.7-4.2.9-7.7 1.3-8.2.8-.5-.5-1.1-3.8-1.5-7.4-.7-8.1-1.6-14.9-2.3-17.5-.3-1.1-.5-11.7-.6-23.5l-.1-21.5-3-4.7c-1.6-2.5-3.7-5.9-4.6-7.6-2.5-4.4-9.2-5-10.5-.9-.4 1.2-.8 7.9-.9 14.9-.1 10 .3 14 1.8 18.5 1.7 5.3 1.8 8 1.3 29.8-.7 25.7-1.4 32.2-4.1 34.1-.9.7-4.7 1.7-8.3 2.3-6.5 1-9.8 1.4-25 2.7l-7.3.6.6-3.3c1.4-8.5 1.7-9.1 5.1-10.5 4.3-1.8 5.7-6.5 5.5-18.9-.2-15.5-.2-20.9 0-24.4.2-2.9-.5-4.1-4.9-8.3-2.9-2.7-5.6-5.7-6.1-6.6-1.2-2.4-2.3-11.7-3.5-32.2-.3-3.6-.7-10.1-1.1-14.5-.5-7.1-.1-11 1.9-20.8 1.3-5.9 1.6-8.4 1.7-14.3.1-3.4-.3-7-.9-8-1-1.8-1.1-1.7-2.1.9-.6 1.6-1.1 3.4-1.1 4.1 0 .8-.7 1.9-1.5 2.6-1.2 1-1.6 1-1.9-.1-.3-.8-1.9-5.8-3.7-11.1-3.3-10.4-5.3-13.4-6.6-10.2zm61.2 200.7c-.9 11.9-1.4 20.4-2 38.6-.4 9.6-.9 18.3-1.1 19.5-1.7 8.7-2.4 14.6-2.9 24.6-2.2 41.8-2.1 41.2-12.9 58.1-3.5 5.4-7.4 12.3-8.6 15.3-2.4 6-2.7 6.2-18.5 14.6-7.5 3.9-28.6 17.8-42 27.5-6.2 4.5-15 8.5-18.7 8.5-2 0-2-.3-1.4-11.3.3-6.1.8-12.1.9-13.2.9-4.8 1.7-11.5 2.2-18.5.3-4.1 1.3-12 2.1-17.5s1.7-11.6 1.9-13.5c.3-3.9 1.4-14.9 2.1-22.5.8-9.5 1.2-10.2 7.9-15 8.7-6.2 17.3-15 24.7-25.4 9.1-12.6 13.1-16.8 33.8-35.9l5.5-5.1-.3-13.5c-.2-13.1-.2-13.5 2-14.8 3.4-1.9 24.2-8.6 25.1-8.1.4.3.5 3.7.2 7.6zM76.6 577c-.1.3-.2 19.4-.2 42.5l.1 42 273.3.2c205.7.1 273.2-.2 273.3-1 .4-3.2.6-80.5.2-82.2l-.4-2h-273c-150.2 0-273.2.2-273.3.5z"/></svg>