<?xml version="1.0" standalone="no"?>
<!DOCTYPE svg PUBLIC "-//W3C//DTD SVG 20010904//EN"
 "http://www.w3.org/TR/2001/REC-SVG-20010904/DTD/svg10.dtd">
<svg version="1.0" xmlns="http://www.w3.org/2000/svg"
 width="916.000000pt" height="916.000000pt" viewBox="0 0 916.000000 916.000000"
 preserveAspectRatio="xMidYMid meet">
<metadata>
Created by potrace 1.11, written by Peter Selinger 2001-2013
</metadata>
<g transform="translate(0.000000,916.000000) scale(0.100000,-0.100000)"
fill="#000000" stroke="none">
<path d="M4465 8623 c-4 -21 -9 -49 -12 -63 -3 -14 -6 -72 -6 -130 0 -86 5
-125 29 -215 27 -105 29 -120 28 -310 0 -177 -7 -325 -20 -435 -2 -19 -6 -57
-9 -84 -7 -74 -12 -83 -63 -118 -26 -17 -50 -36 -54 -42 -4 -6 -8 -7 -8 -3 0
12 -50 -40 -50 -53 0 -5 -4 -10 -8 -10 -5 0 -14 -24 -22 -52 -34 -128 -19
-210 80 -453 68 -166 68 -179 2 -317 -66 -138 -65 -136 -76 -203 -4 -22 -11
-65 -16 -95 -5 -30 -12 -75 -15 -100 -4 -25 -13 -74 -21 -110 -9 -36 -17 -69
-18 -75 -10 -46 -85 -134 -137 -161 -41 -21 -107 -16 -194 14 -88 31 -232 36
-280 10 -33 -17 -35 -17 -195 54 -60 26 -162 60 -255 84 -175 45 -209 67 -420
275 -235 232 -318 290 -655 460 -91 45 -166 86 -168 91 -2 4 -8 8 -12 8 -18 0
-100 62 -130 98 -16 20 -37 52 -46 72 -18 38 -49 81 -58 81 -3 -1 -7 -1 -8 0
-2 0 -28 2 -58 4 -30 3 -66 7 -80 10 -14 3 -38 8 -55 10 -16 2 -41 6 -55 9
-40 9 -100 17 -160 20 -89 5 -129 -25 -87 -65 18 -17 143 -103 238 -164 9 -5
35 -22 58 -37 74 -50 126 -81 126 -77 0 2 14 -5 30 -16 17 -11 54 -32 82 -45
29 -14 53 -28 53 -32 0 -5 5 -8 11 -8 13 0 158 -112 239 -184 157 -140 242
-220 439 -415 119 -117 227 -220 241 -229 23 -15 97 -72 127 -97 6 -5 24 -20
40 -32 15 -12 42 -34 58 -48 17 -15 55 -48 85 -75 138 -121 240 -199 358 -275
65 -42 109 -126 117 -225 3 -41 8 -97 10 -125 3 -27 7 -85 9 -127 2 -43 6 -81
9 -85 2 -4 5 -33 7 -63 3 -61 8 -105 10 -105 1 0 3 -22 5 -50 3 -27 6 -61 8
-75 3 -14 8 -49 12 -79 3 -30 9 -63 11 -75 2 -12 7 -37 10 -56 3 -19 9 -51 14
-70 26 -103 28 -199 6 -350 -11 -76 -20 -139 -22 -160 -1 -14 -3 -25 -4 -25
-2 0 -9 -100 -13 -193 -2 -34 -8 -66 -13 -71 -5 -5 -34 -22 -64 -38 -147 -79
-406 -236 -420 -254 -9 -12 -85 -47 -115 -53 -43 -8 -87 -16 -110 -20 -68 -11
-130 -38 -152 -66 -6 -8 -15 -33 -19 -55 -3 -22 -8 -50 -10 -62 -2 -12 14 -55
38 -100 22 -43 45 -91 49 -108 4 -16 18 -66 29 -110 12 -44 23 -84 24 -90 1
-5 6 -17 11 -25 5 -8 10 -17 10 -20 2 -16 37 -68 58 -89 19 -17 32 -22 51 -17
31 8 32 20 8 108 -27 97 -20 252 15 326 9 18 30 44 47 57 36 28 138 80 149 77
4 -1 7 3 7 8 0 6 9 10 20 10 11 0 20 5 20 10 0 6 8 10 18 10 10 0 22 4 28 9
11 10 376 172 379 169 3 -4 47 -149 49 -163 1 -5 5 -16 9 -23 5 -6 6 -12 3
-12 -2 0 0 -15 5 -32 14 -50 23 -126 22 -203 -1 -60 -8 -140 -13 -140 -1 0 -3
-24 -6 -53 -3 -51 15 -111 34 -113 4 0 14 -2 22 -4 8 -2 31 -6 50 -9 46 -9 80
-19 165 -49 62 -22 83 -25 182 -22 164 5 189 26 105 92 -69 55 -72 58 -127
105 -165 141 -222 236 -241 398 -8 74 -12 287 -5 298 3 5 24 13 46 16 204 32
231 39 360 94 68 28 92 38 107 41 4 1 23 8 43 17 19 8 37 14 40 14 3 0 7 1 10
1 3 1 8 2 13 3 37 10 171 52 227 72 39 14 77 27 86 29 26 6 140 55 224 97 85
42 164 74 180 73 24 -2 81 -18 90 -25 23 -18 114 -37 165 -34 63 3 78 6 175
29 39 9 78 18 87 20 9 2 25 8 35 13 10 6 21 10 26 11 4 1 9 2 12 2 3 1 10 3
15 4 6 1 12 4 15 5 3 1 8 3 13 4 4 2 41 13 82 26 41 13 77 25 80 25 3 0 11 4
18 8 6 5 12 6 12 3 0 -3 12 -1 27 5 14 5 58 12 96 14 l70 5 -8 -63 c-4 -34 -6
-96 -5 -137 2 -78 3 -93 15 -175 4 -28 8 -58 9 -67 0 -10 3 -18 6 -18 3 0 6
-10 7 -22 0 -22 5 -48 18 -108 3 -14 8 -36 11 -50 2 -14 6 -34 9 -46 3 -12 7
-39 10 -60 4 -21 8 -50 11 -64 9 -50 17 -136 17 -185 0 -59 -5 -88 -32 -178
-11 -37 -20 -70 -19 -72 0 -3 -3 -23 -7 -45 -9 -53 1 -93 28 -109 15 -10 66
-15 172 -17 170 -4 218 -8 323 -30 53 -11 183 -13 211 -3 25 9 28 14 22 37 -6
21 -35 44 -122 99 -120 75 -190 141 -257 241 -67 99 -73 124 -67 280 4 75 8
155 10 177 2 22 6 81 9 130 4 50 8 110 11 135 2 25 7 84 11 133 3 48 8 111 11
140 2 28 5 114 7 191 3 115 0 149 -17 205 -34 112 -69 144 -167 151 -152 11
-528 2 -635 -15 -16 -3 -52 -7 -78 -10 l-48 -4 6 32 c7 34 67 168 84 189 22
27 81 120 81 129 0 5 3 9 8 9 9 0 22 27 74 150 22 52 44 98 50 101 5 3 9 8 8
10 -1 2 4 16 11 31 10 24 31 34 168 78 86 28 165 55 176 61 11 5 29 11 40 14
47 9 246 88 380 149 119 55 149 66 195 71 64 7 75 10 155 43 21 10 42 17 45
17 6 1 109 54 188 97 101 55 211 108 225 108 8 0 17 3 21 7 3 4 12 8 19 9 12
2 38 7 102 19 51 9 165 47 165 55 0 15 -13 18 -41 10 -40 -12 -46 5 -6 21 17
7 34 15 37 18 7 8 114 61 123 61 3 0 29 14 57 31 50 31 61 55 24 53 -42 -3
-159 -16 -164 -19 -3 -2 -21 -6 -40 -9 -49 -8 -79 -14 -100 -21 -10 -3 -29 -8
-42 -10 -18 -4 -163 -48 -238 -73 -26 -9 -44 -12 -77 -15 -18 -1 -33 -6 -33
-10 0 -5 -4 -5 -10 -2 -5 3 -47 1 -92 -6 -46 -6 -92 -13 -103 -14 -129 -18
-180 -32 -245 -67 -91 -49 -142 -64 -240 -74 -25 -2 -56 -6 -70 -9 -14 -2 -52
-7 -85 -11 -70 -7 -92 -11 -103 -17 -4 -3 -29 -8 -56 -11 -27 -4 -52 -9 -55
-10 -5 -3 -53 -9 -191 -22 -69 -6 -134 -17 -170 -29 -34 -11 -43 22 -21 79 18
49 41 72 95 98 103 50 134 78 121 117 -12 40 -21 89 -29 158 -5 47 -4 54 20
77 l27 24 -20 29 c-11 15 -30 51 -42 79 -23 54 -22 90 3 129 14 21 12 26 -19
77 -60 95 -133 138 -257 152 -44 4 -120 -9 -157 -27 -46 -23 -76 -42 -82 -51
-18 -24 -27 14 -27 119 l0 115 81 54 c45 29 93 59 107 66 14 7 27 16 30 20 4
6 78 51 178 111 176 104 276 141 374 138 66 -1 100 -7 232 -40 77 -19 105 21
39 56 -35 19 -83 60 -83 71 0 33 47 65 165 112 93 38 160 87 132 98 -10 3 -43
4 -75 0 -200 -20 -293 -47 -462 -131 -168 -84 -288 -127 -455 -161 -11 -2 -73
-17 -138 -33 -81 -19 -120 -25 -122 -17 -2 6 -6 36 -9 66 -3 30 -8 74 -11 98
-3 23 -7 61 -10 85 -3 23 -8 62 -11 87 -3 25 -7 59 -10 75 -14 90 -15 244 -2
305 16 74 15 108 -2 191 -9 40 -18 60 -30 64 -10 3 -28 31 -40 63 -31 78 -50
96 -101 95 -22 0 -45 -5 -51 -11 -18 -18 -27 -93 -27 -239 0 -144 7 -190 37
-253 14 -29 17 -63 15 -195 -2 -222 -16 -505 -28 -564 -2 -12 -10 -29 -16 -37
-23 -27 -133 -50 -289 -59 -81 -5 -185 -15 -227 -21 l-33 -5 4 43 c11 104 27
134 81 144 45 8 53 38 70 266 2 20 -4 65 -12 100 -20 87 -20 98 2 140 16 32
17 43 7 75 -13 43 -56 92 -112 129 -23 16 -41 37 -45 52 -12 58 -22 149 -30
287 -3 50 -7 113 -10 140 -20 232 -23 306 -13 333 8 24 16 60 23 106 2 15 6
35 9 45 31 104 21 298 -14 276 -5 -3 -14 -30 -20 -59 -14 -70 -35 -90 -51 -50
-14 35 -45 135 -60 189 -13 48 -44 108 -57 113 -5 1 -13 -14 -17 -35z m808
-2530 c-2 -9 -10 -122 -18 -253 -3 -41 -7 -147 -10 -235 -10 -319 -14 -385
-25 -405 -6 -11 -9 -20 -6 -20 3 0 0 -15 -5 -32 -10 -37 -16 -105 -24 -298
-12 -276 -20 -383 -31 -422 -3 -9 -7 -27 -9 -39 -7 -33 -71 -158 -103 -200
-77 -102 -118 -169 -125 -206 -2 -10 -12 -37 -22 -61 -16 -39 -25 -46 -116
-92 -149 -74 -369 -204 -377 -222 -2 -5 -10 -8 -18 -8 -8 0 -14 -4 -14 -10 0
-5 -6 -10 -14 -10 -8 0 -16 -4 -18 -8 -1 -5 -32 -28 -68 -53 -36 -24 -67 -46
-70 -50 -3 -3 -27 -21 -55 -40 -27 -18 -52 -36 -55 -40 -11 -12 -110 -68 -110
-63 0 4 -6 2 -12 -3 -7 -6 -35 -16 -61 -23 -64 -17 -66 -12 -62 114 4 103 5
116 25 228 12 62 16 106 24 243 2 39 7 81 10 95 3 14 8 45 11 70 3 25 7 56 10
70 2 14 6 45 9 70 3 25 7 54 10 65 2 11 7 56 10 100 4 44 9 103 11 130 3 28 7
77 10 110 7 97 8 99 100 159 124 81 251 216 360 384 15 23 32 42 38 42 6 0 8
3 4 6 -3 4 -1 12 6 19 7 7 35 38 62 70 42 49 98 105 185 185 8 8 48 41 87 72
82 66 101 97 99 162 0 25 3 46 7 46 4 0 4 8 -1 18 -9 18 -15 81 -16 169 -1 66
5 70 154 120 195 64 218 69 213 46z"/>
<path d="M1002 1499 c2 -66 0 -119 -3 -119 -3 0 -3 -17 0 -37 4 -21 4 -62 1
-90 -3 -29 -2 -59 2 -67 5 -8 4 -17 -2 -21 -6 -4 -7 -11 -4 -17 4 -6 6 -36 5
-67 -1 -31 -2 -63 -1 -71 0 -8 -1 -37 -1 -65 -1 -27 -1 -54 -1 -60 6 -91 5
-145 -1 -145 -5 0 -5 -5 -2 -11 4 -5 6 -42 5 -82 -1 -40 -1 -79 -1 -87 1 -8 1
-25 1 -37 l0 -23 3579 0 3580 0 1 38 c0 35 0 46 0 90 0 9 -1 53 -1 97 1 44 0
98 0 120 0 22 0 45 1 50 1 6 1 15 0 20 -4 23 -3 115 2 121 3 3 2 19 -2 37 -4
18 -4 41 0 51 3 11 3 39 0 63 -4 24 -3 46 2 49 4 3 6 10 2 15 -5 9 -6 48 -3
129 0 8 -1 48 -2 88 -1 39 0 74 2 77 3 2 3 20 1 38 l-4 34 -3579 0 -3579 0 2
-118z"/>
</g>
</svg>
