<?xml version="1.0" encoding="UTF-8" standalone="no"?>
<!DOCTYPE svg PUBLIC "-//W3C//DTD SVG 1.1//EN"
 "http://www.w3.org/Graphics/SVG/1.1/DTD/svg11.dtd">
<!-- Generated by graphviz version 2.40.1 (20161225.0304)
 -->
<!-- Title: dependencies Pages: 1 -->
<svg width="1855pt" height="211pt"
 viewBox="0.00 0.00 1855.00 211.00" xmlns="http://www.w3.org/2000/svg" xmlns:xlink="http://www.w3.org/1999/xlink">
<g id="graph0" class="graph" transform="scale(1 1) rotate(0) translate(4 207)">
<title>dependencies</title>
<polygon fill="#ffffff" stroke="transparent" points="-4,4 -4,-207 1851,-207 1851,4 -4,4"/>
<text text-anchor="start" x="902.5091" y="-42.4" font-family="sans-serif" font-weight="bold" font-size="14.00" fill="#000000">Legend</text>
<polygon fill="#ffffb3" stroke="transparent" points="689.5,-10 689.5,-30 709.5,-30 709.5,-10 689.5,-10"/>
<text text-anchor="start" x="713.129" y="-15.4" font-family="sans-serif" font-size="14.00" fill="#000000"> &#160;Declarations</text>
<polygon fill="#8dd3c7" stroke="transparent" points="802.5,-10 802.5,-30 822.5,-30 822.5,-10 802.5,-10"/>
<text text-anchor="start" x="826.2251" y="-15.4" font-family="sans-serif" font-size="14.00" fill="#000000"> &#160;Module</text>
<polygon fill="#80b1d3" stroke="transparent" points="888.5,-10 888.5,-30 908.5,-30 908.5,-10 888.5,-10"/>
<text text-anchor="start" x="912.2812" y="-15.4" font-family="sans-serif" font-size="14.00" fill="#000000"> &#160;Bootstrap</text>
<polygon fill="#fdb462" stroke="transparent" points="985.5,-10 985.5,-30 1005.5,-30 1005.5,-10 985.5,-10"/>
<text text-anchor="start" x="1009.1732" y="-15.4" font-family="sans-serif" font-size="14.00" fill="#000000"> &#160;Providers</text>
<polygon fill="#fb8072" stroke="transparent" points="1081.5,-10 1081.5,-30 1101.5,-30 1101.5,-10 1081.5,-10"/>
<text text-anchor="start" x="1105.2258" y="-15.4" font-family="sans-serif" font-size="14.00" fill="#000000"> &#160;Exports</text>
<g id="clust1" class="cluster">
<title>cluster_TournamentModule</title>
<polygon fill="none" stroke="#000000" stroke-dasharray="1,5" points="8,-70 8,-195 1839,-195 1839,-70 8,-70"/>
</g>
<g id="clust2" class="cluster">
<title>cluster_TournamentModule_declarations</title>
<polygon fill="none" stroke="#000000" points="584,-78 584,-130 1831,-130 1831,-78 584,-78"/>
</g>
<g id="clust11" class="cluster">
<title>cluster_TournamentModule_imports</title>
<polygon fill="none" stroke="#000000" points="16,-78 16,-130 576,-130 576,-78 16,-78"/>
</g>
<!-- AwardsComponent -->
<g id="node1" class="node">
<title>AwardsComponent</title>
<polygon fill="#ffffb3" stroke="#000000" points="1823.3655,-122 1698.6345,-122 1698.6345,-86 1823.3655,-86 1823.3655,-122"/>
<text text-anchor="middle" x="1761" y="-99.8" font-family="Times,serif" font-size="14.00" fill="#000000">AwardsComponent</text>
</g>
<!-- TournamentModule -->
<g id="node9" class="node">
<title>TournamentModule</title>
<polygon fill="#8dd3c7" stroke="#000000" points="1008.9734,-187 1005.9734,-191 984.9734,-191 981.9734,-187 881.0266,-187 881.0266,-151 1008.9734,-151 1008.9734,-187"/>
<text text-anchor="middle" x="945" y="-164.8" font-family="Times,serif" font-size="14.00" fill="#000000">TournamentModule</text>
</g>
<!-- AwardsComponent&#45;&gt;TournamentModule -->
<g id="edge1" class="edge">
<title>AwardsComponent&#45;&gt;TournamentModule</title>
<path fill="none" stroke="#000000" d="M1761,-122.0908C1761,-145.1328 1761,-182 1761,-182 1761,-182 1019.0302,-182 1019.0302,-182"/>
<polygon fill="#000000" stroke="#000000" points="1019.0302,-178.5001 1009.0302,-182 1019.0301,-185.5001 1019.0302,-178.5001"/>
</g>
<!-- InfoComponent -->
<g id="node2" class="node">
<title>InfoComponent</title>
<polygon fill="#ffffb3" stroke="#000000" points="1680.1542,-122 1575.8458,-122 1575.8458,-86 1680.1542,-86 1680.1542,-122"/>
<text text-anchor="middle" x="1628" y="-99.8" font-family="Times,serif" font-size="14.00" fill="#000000">InfoComponent</text>
</g>
<!-- InfoComponent&#45;&gt;TournamentModule -->
<g id="edge2" class="edge">
<title>InfoComponent&#45;&gt;TournamentModule</title>
<path fill="none" stroke="#000000" d="M1628,-122.2843C1628,-143.3211 1628,-175 1628,-175 1628,-175 1019.255,-175 1019.255,-175"/>
<polygon fill="#000000" stroke="#000000" points="1019.255,-171.5001 1009.255,-175 1019.2549,-178.5001 1019.255,-171.5001"/>
</g>
<!-- ScheduleComponent -->
<g id="node3" class="node">
<title>ScheduleComponent</title>
<polygon fill="#ffffb3" stroke="#000000" points="1557.1499,-122 1424.8501,-122 1424.8501,-86 1557.1499,-86 1557.1499,-122"/>
<text text-anchor="middle" x="1491" y="-99.8" font-family="Times,serif" font-size="14.00" fill="#000000">ScheduleComponent</text>
</g>
<!-- ScheduleComponent&#45;&gt;TournamentModule -->
<g id="edge3" class="edge">
<title>ScheduleComponent&#45;&gt;TournamentModule</title>
<path fill="none" stroke="#000000" d="M1491,-122.1061C1491,-141.3391 1491,-169 1491,-169 1491,-169 1019.2387,-169 1019.2387,-169"/>
<polygon fill="#000000" stroke="#000000" points="1019.2387,-165.5001 1009.2387,-169 1019.2387,-172.5001 1019.2387,-165.5001"/>
</g>
<!-- ScorecardsComponent -->
<g id="node4" class="node">
<title>ScorecardsComponent</title>
<polygon fill="#ffffb3" stroke="#000000" points="1406.2394,-122 1263.7606,-122 1263.7606,-86 1406.2394,-86 1406.2394,-122"/>
<text text-anchor="middle" x="1335" y="-99.8" font-family="Times,serif" font-size="14.00" fill="#000000">ScorecardsComponent</text>
</g>
<!-- ScorecardsComponent&#45;&gt;TournamentModule -->
<g id="edge4" class="edge">
<title>ScorecardsComponent&#45;&gt;TournamentModule</title>
<path fill="none" stroke="#000000" d="M1335,-122.0225C1335,-139.3734 1335,-163 1335,-163 1335,-163 1019.4006,-163 1019.4006,-163"/>
<polygon fill="#000000" stroke="#000000" points="1019.4006,-159.5001 1009.4006,-163 1019.4005,-166.5001 1019.4006,-159.5001"/>
</g>
<!-- TeamEditorComponent -->
<g id="node5" class="node">
<title>TeamEditorComponent</title>
<polygon fill="#ffffb3" stroke="#000000" points="1246.1993,-122 1097.8007,-122 1097.8007,-86 1246.1993,-86 1246.1993,-122"/>
<text text-anchor="middle" x="1172" y="-99.8" font-family="Times,serif" font-size="14.00" fill="#000000">TeamEditorComponent</text>
</g>
<!-- TeamEditorComponent&#45;&gt;TournamentModule -->
<g id="edge5" class="edge">
<title>TeamEditorComponent&#45;&gt;TournamentModule</title>
<path fill="none" stroke="#000000" d="M1172,-122.2396C1172,-137.5706 1172,-157 1172,-157 1172,-157 1019.1389,-157 1019.1389,-157"/>
<polygon fill="#000000" stroke="#000000" points="1019.1389,-153.5001 1009.1389,-157 1019.1388,-160.5001 1019.1389,-153.5001"/>
</g>
<!-- TeamsComponent -->
<g id="node6" class="node">
<title>TeamsComponent</title>
<polygon fill="#ffffb3" stroke="#000000" points="1080.1499,-122 961.8501,-122 961.8501,-86 1080.1499,-86 1080.1499,-122"/>
<text text-anchor="middle" x="1021" y="-99.8" font-family="Times,serif" font-size="14.00" fill="#000000">TeamsComponent</text>
</g>
<!-- TeamsComponent&#45;&gt;TournamentModule -->
<g id="edge6" class="edge">
<title>TeamsComponent&#45;&gt;TournamentModule</title>
<path fill="none" stroke="#000000" d="M985.331,-122.1061C985.331,-122.1061 985.331,-140.991 985.331,-140.991"/>
<polygon fill="#000000" stroke="#000000" points="981.8311,-140.9909 985.331,-150.991 988.8311,-140.991 981.8311,-140.9909"/>
</g>
<!-- TournamentComponent -->
<g id="node7" class="node">
<title>TournamentComponent</title>
<polygon fill="#ffffb3" stroke="#000000" points="943.7562,-122 794.2438,-122 794.2438,-86 943.7562,-86 943.7562,-122"/>
<text text-anchor="middle" x="869" y="-99.8" font-family="Times,serif" font-size="14.00" fill="#000000">TournamentComponent</text>
</g>
<!-- TournamentComponent&#45;&gt;TournamentModule -->
<g id="edge7" class="edge">
<title>TournamentComponent&#45;&gt;TournamentModule</title>
<path fill="none" stroke="#000000" d="M912.4456,-122.1061C912.4456,-122.1061 912.4456,-140.991 912.4456,-140.991"/>
<polygon fill="#000000" stroke="#000000" points="908.9457,-140.9909 912.4456,-150.991 915.9457,-140.991 908.9457,-140.9909"/>
</g>
<!-- TournamentEditorComponent -->
<g id="node8" class="node">
<title>TournamentEditorComponent</title>
<polygon fill="#ffffb3" stroke="#000000" points="776.2506,-122 591.7494,-122 591.7494,-86 776.2506,-86 776.2506,-122"/>
<text text-anchor="middle" x="684" y="-99.8" font-family="Times,serif" font-size="14.00" fill="#000000">TournamentEditorComponent</text>
</g>
<!-- TournamentEditorComponent&#45;&gt;TournamentModule -->
<g id="edge8" class="edge">
<title>TournamentEditorComponent&#45;&gt;TournamentModule</title>
<path fill="none" stroke="#000000" d="M684,-122.2396C684,-137.5706 684,-157 684,-157 684,-157 870.8179,-157 870.8179,-157"/>
<polygon fill="#000000" stroke="#000000" points="870.818,-160.5001 880.8179,-157 870.8179,-153.5001 870.818,-160.5001"/>
</g>
<!-- ConfigureSharedModule -->
<g id="node10" class="node">
<title>ConfigureSharedModule</title>
<polygon fill="#8dd3c7" stroke="#000000" points="567.6853,-122 564.6853,-126 543.6853,-126 540.6853,-122 412.3147,-122 412.3147,-86 567.6853,-86 567.6853,-122"/>
<text text-anchor="middle" x="490" y="-99.8" font-family="Times,serif" font-size="14.00" fill="#000000">ConfigureSharedModule</text>
</g>
<!-- ConfigureSharedModule&#45;&gt;TournamentModule -->
<g id="edge9" class="edge">
<title>ConfigureSharedModule&#45;&gt;TournamentModule</title>
<path fill="none" stroke="#000000" d="M490,-122.0225C490,-139.3734 490,-163 490,-163 490,-163 870.7746,-163 870.7746,-163"/>
<polygon fill="#000000" stroke="#000000" points="870.7747,-166.5001 880.7746,-163 870.7746,-159.5001 870.7747,-166.5001"/>
</g>
<!-- DisciplinesModule -->
<g id="node11" class="node">
<title>DisciplinesModule</title>
<polygon fill="#8dd3c7" stroke="#000000" points="394.0381,-122 391.0381,-126 370.0381,-126 367.0381,-122 271.9619,-122 271.9619,-86 394.0381,-86 394.0381,-122"/>
<text text-anchor="middle" x="333" y="-99.8" font-family="Times,serif" font-size="14.00" fill="#000000">DisciplinesModule</text>
</g>
<!-- DisciplinesModule&#45;&gt;TournamentModule -->
<g id="edge10" class="edge">
<title>DisciplinesModule&#45;&gt;TournamentModule</title>
<path fill="none" stroke="#000000" d="M333,-122.1061C333,-141.3391 333,-169 333,-169 333,-169 870.9499,-169 870.9499,-169"/>
<polygon fill="#000000" stroke="#000000" points="870.9499,-172.5001 880.9499,-169 870.9498,-165.5001 870.9499,-172.5001"/>
</g>
<!-- DivisionsModule -->
<g id="node12" class="node">
<title>DivisionsModule</title>
<polygon fill="#8dd3c7" stroke="#000000" points="253.7176,-122 250.7176,-126 229.7176,-126 226.7176,-122 140.2824,-122 140.2824,-86 253.7176,-86 253.7176,-122"/>
<text text-anchor="middle" x="197" y="-99.8" font-family="Times,serif" font-size="14.00" fill="#000000">DivisionsModule</text>
</g>
<!-- DivisionsModule&#45;&gt;TournamentModule -->
<g id="edge11" class="edge">
<title>DivisionsModule&#45;&gt;TournamentModule</title>
<path fill="none" stroke="#000000" d="M197,-122.2843C197,-143.3211 197,-175 197,-175 197,-175 870.9026,-175 870.9026,-175"/>
<polygon fill="#000000" stroke="#000000" points="870.9026,-178.5001 880.9026,-175 870.9026,-171.5001 870.9026,-178.5001"/>
</g>
<!-- SharedModule -->
<g id="node13" class="node">
<title>SharedModule</title>
<polygon fill="#8dd3c7" stroke="#000000" points="122.4231,-122 119.4231,-126 98.4231,-126 95.4231,-122 23.5769,-122 23.5769,-86 122.4231,-86 122.4231,-122"/>
<text text-anchor="middle" x="73" y="-99.8" font-family="Times,serif" font-size="14.00" fill="#000000">SharedModule</text>
</g>
<!-- SharedModule&#45;&gt;TournamentModule -->
<g id="edge12" class="edge">
<title>SharedModule&#45;&gt;TournamentModule</title>
<path fill="none" stroke="#000000" d="M73,-122.0908C73,-145.1328 73,-182 73,-182 73,-182 870.8798,-182 870.8798,-182"/>
<polygon fill="#000000" stroke="#000000" points="870.8798,-185.5001 880.8798,-182 870.8797,-178.5001 870.8798,-185.5001"/>
</g>
</g>
</svg>
