<?xml version="1.0" standalone="no"?>
<!DOCTYPE svg PUBLIC "-//W3C//DTD SVG 20010904//EN"
 "http://www.w3.org/TR/2001/REC-SVG-20010904/DTD/svg10.dtd">
<svg version="1.0" xmlns="http://www.w3.org/2000/svg"
 width="16.000000pt" height="16.000000pt" viewBox="0 0 16.000000 16.000000"
 preserveAspectRatio="xMidYMid meet">
<metadata>
Created by potrace 1.11, written by Peter Selinger 2001-2013
</metadata>
<g transform="translate(0.000000,16.000000) scale(0.020253,-0.020253)"
fill="#000000" stroke="none">
<path d="M370 775 c-1 -11 -1 -24 0 -30 5 -20 -1 -79 -9 -90 -5 -5 -9 -32 -8
-60 0 -57 -8 -91 -26 -97 -24 -8 -115 14 -135 32 -12 11 -40 30 -64 42 -24 12
-49 28 -56 35 -7 7 -25 13 -40 13 -25 0 -23 -3 21 -31 27 -16 83 -57 125 -91
74 -59 77 -63 87 -117 15 -84 9 -113 -26 -134 -17 -9 -37 -17 -44 -17 -22 0
-26 -16 -11 -51 l14 -34 4 29 c2 23 10 32 41 42 35 12 37 12 38 -9 1 -12 1
-27 0 -33 -1 -7 9 -14 21 -18 44 -11 51 -6 24 19 -43 40 -35 58 37 79 34 10
76 19 92 21 17 2 46 6 65 10 39 7 37 11 40 -90 1 -40 1 -40 43 -42 l42 -3 -25
20 c-23 17 -25 26 -25 92 l0 73 -48 0 c-26 0 -47 2 -47 3 0 2 8 17 17 33 12
21 33 34 77 48 104 34 136 47 149 61 10 10 8 12 -8 6 -23 -8 -105 -26 -150
-32 -16 -2 -36 -6 -42 -9 -15 -5 -17 11 -3 20 5 3 8 20 6 38 -3 26 -8 33 -30
35 -14 2 -26 8 -26 13 0 15 80 48 99 41 9 -3 13 -2 9 3 -4 4 0 14 10 21 18 14
15 13 -79 -16 -18 -5 -35 -8 -38 -5 -4 2 -8 23 -10 47 -1 24 -6 47 -12 53 -11
11 -11 9 -13 -65 l-1 -55 -35 -2 c-19 -1 -29 0 -22 3 14 7 17 70 3 79 -5 3 -9
30 -8 59 1 30 -1 52 -5 50 -3 -2 -9 4 -11 13 -4 16 -5 15 -7 -2z m86 -243 c-3
-5 -6 -36 -7 -69 -3 -85 -19 -117 -76 -152 -64 -41 -73 -40 -66 5 3 20 7 48 7
63 1 17 17 39 53 71 32 28 52 54 52 68 1 15 7 22 22 22 11 0 18 -4 15 -8z"/>
<path d="M20 55 l0 -55 368 0 369 0 -1 55 -1 55 -367 0 -368 -1 0 -54z"/>
</g>
</svg>
