<?xml version="1.0" encoding="UTF-8" standalone="no"?>
<!DOCTYPE svg PUBLIC "-//W3C//DTD SVG 1.1//EN"
 "http://www.w3.org/Graphics/SVG/1.1/DTD/svg11.dtd">
<!-- Generated by graphviz version 2.40.1 (20161225.0304)
 -->
<!-- Title: dependencies Pages: 1 -->
<svg width="534pt" height="284pt"
 viewBox="0.00 0.00 534.00 284.00" xmlns="http://www.w3.org/2000/svg" xmlns:xlink="http://www.w3.org/1999/xlink">
<g id="graph0" class="graph" transform="scale(1 1) rotate(0) translate(4 280)">
<title>dependencies</title>
<polygon fill="#ffffff" stroke="transparent" points="-4,4 -4,-280 530,-280 530,4 -4,4"/>
<text text-anchor="start" x="242.0091" y="-42.4" font-family="sans-serif" font-weight="bold" font-size="14.00" fill="#000000">Legend</text>
<polygon fill="#ffffb3" stroke="transparent" points="29,-10 29,-30 49,-30 49,-10 29,-10"/>
<text text-anchor="start" x="52.629" y="-15.4" font-family="sans-serif" font-size="14.00" fill="#000000"> &#160;Declarations</text>
<polygon fill="#8dd3c7" stroke="transparent" points="142,-10 142,-30 162,-30 162,-10 142,-10"/>
<text text-anchor="start" x="165.7251" y="-15.4" font-family="sans-serif" font-size="14.00" fill="#000000"> &#160;Module</text>
<polygon fill="#80b1d3" stroke="transparent" points="228,-10 228,-30 248,-30 248,-10 228,-10"/>
<text text-anchor="start" x="251.7812" y="-15.4" font-family="sans-serif" font-size="14.00" fill="#000000"> &#160;Bootstrap</text>
<polygon fill="#fdb462" stroke="transparent" points="325,-10 325,-30 345,-30 345,-10 325,-10"/>
<text text-anchor="start" x="348.6732" y="-15.4" font-family="sans-serif" font-size="14.00" fill="#000000"> &#160;Providers</text>
<polygon fill="#fb8072" stroke="transparent" points="421,-10 421,-30 441,-30 441,-10 421,-10"/>
<text text-anchor="start" x="444.7258" y="-15.4" font-family="sans-serif" font-size="14.00" fill="#000000"> &#160;Exports</text>
<g id="clust1" class="cluster">
<title>cluster_ScoreSystemModule</title>
<polygon fill="none" stroke="#000000" stroke-dasharray="1,5" points="8,-70 8,-268 518,-268 518,-70 8,-70"/>
</g>
<g id="clust2" class="cluster">
<title>cluster_ScoreSystemModule_declarations</title>
<polygon fill="none" stroke="#000000" points="138,-78 138,-130 510,-130 510,-78 138,-78"/>
</g>
<g id="clust5" class="cluster">
<title>cluster_ScoreSystemModule_imports</title>
<polygon fill="none" stroke="#000000" points="16,-78 16,-130 130,-130 130,-78 16,-78"/>
</g>
<g id="clust6" class="cluster">
<title>cluster_ScoreSystemModule_exports</title>
<polygon fill="none" stroke="#000000" points="73,-208 73,-260 453,-260 453,-208 73,-208"/>
</g>
<!-- ScoreGroupEditorComponent -->
<g id="node1" class="node">
<title>ScoreGroupEditorComponent</title>
<polygon fill="#ffffb3" stroke="#000000" points="501.9664,-122 318.0336,-122 318.0336,-86 501.9664,-86 501.9664,-122"/>
<text text-anchor="middle" x="410" y="-99.8" font-family="Times,serif" font-size="14.00" fill="#000000">ScoreGroupEditorComponent</text>
</g>
<!-- ScoreSystemModule -->
<g id="node3" class="node">
<title>ScoreSystemModule</title>
<polygon fill="#8dd3c7" stroke="#000000" points="289.1457,-187 286.1457,-191 265.1457,-191 262.1457,-187 156.8543,-187 156.8543,-151 289.1457,-151 289.1457,-187"/>
<text text-anchor="middle" x="223" y="-164.8" font-family="Times,serif" font-size="14.00" fill="#000000">ScoreSystemModule</text>
</g>
<!-- ScoreGroupEditorComponent&#45;&gt;ScoreSystemModule -->
<g id="edge1" class="edge">
<title>ScoreGroupEditorComponent&#45;&gt;ScoreSystemModule</title>
<path fill="none" stroke="#000000" d="M381.375,-122.1061C381.375,-141.3391 381.375,-169 381.375,-169 381.375,-169 299.2476,-169 299.2476,-169"/>
<polygon fill="#000000" stroke="#000000" points="299.2476,-165.5001 289.2476,-169 299.2476,-172.5001 299.2476,-165.5001"/>
</g>
<!-- ScoreSystemComponent -->
<g id="node2" class="node">
<title>ScoreSystemComponent</title>
<polygon fill="#ffffb3" stroke="#000000" points="300.4284,-122 145.5716,-122 145.5716,-86 300.4284,-86 300.4284,-122"/>
<text text-anchor="middle" x="223" y="-99.8" font-family="Times,serif" font-size="14.00" fill="#000000">ScoreSystemComponent</text>
</g>
<!-- ScoreSystemComponent&#45;&gt;ScoreSystemModule -->
<g id="edge2" class="edge">
<title>ScoreSystemComponent&#45;&gt;ScoreSystemModule</title>
<path fill="none" stroke="#000000" d="M223,-122.1061C223,-122.1061 223,-140.991 223,-140.991"/>
<polygon fill="#000000" stroke="#000000" points="219.5001,-140.9909 223,-150.991 226.5001,-140.991 219.5001,-140.9909"/>
</g>
<!-- ScoreGroupEditorComponent  -->
<g id="node5" class="node">
<title>ScoreGroupEditorComponent </title>
<polygon fill="#fb8072" stroke="#000000" points="444.967,-252 257.033,-252 257.033,-216 444.967,-216 444.967,-252"/>
<text text-anchor="middle" x="351" y="-229.8" font-family="Times,serif" font-size="14.00" fill="#000000">ScoreGroupEditorComponent </text>
</g>
<!-- ScoreSystemModule&#45;&gt;ScoreGroupEditorComponent  -->
<g id="edge4" class="edge">
<title>ScoreSystemModule&#45;&gt;ScoreGroupEditorComponent </title>
<path fill="none" stroke="#000000" stroke-dasharray="5,2" d="M273.2947,-187.1061C273.2947,-187.1061 273.2947,-205.991 273.2947,-205.991"/>
<polygon fill="#000000" stroke="#000000" points="269.7948,-205.9909 273.2947,-215.991 276.7948,-205.991 269.7948,-205.9909"/>
</g>
<!-- ScoreSystemComponent  -->
<g id="node6" class="node">
<title>ScoreSystemComponent </title>
<polygon fill="#fb8072" stroke="#000000" points="238.9278,-252 81.0722,-252 81.0722,-216 238.9278,-216 238.9278,-252"/>
<text text-anchor="middle" x="160" y="-229.8" font-family="Times,serif" font-size="14.00" fill="#000000">ScoreSystemComponent </text>
</g>
<!-- ScoreSystemModule&#45;&gt;ScoreSystemComponent  -->
<g id="edge5" class="edge">
<title>ScoreSystemModule&#45;&gt;ScoreSystemComponent </title>
<path fill="none" stroke="#000000" stroke-dasharray="5,2" d="M197.8207,-187.1061C197.8207,-187.1061 197.8207,-205.991 197.8207,-205.991"/>
<polygon fill="#000000" stroke="#000000" points="194.3207,-205.9909 197.8207,-215.991 201.3207,-205.991 194.3207,-205.9909"/>
</g>
<!-- SharedModule -->
<g id="node4" class="node">
<title>SharedModule</title>
<polygon fill="#8dd3c7" stroke="#000000" points="122.4231,-122 119.4231,-126 98.4231,-126 95.4231,-122 23.5769,-122 23.5769,-86 122.4231,-86 122.4231,-122"/>
<text text-anchor="middle" x="73" y="-99.8" font-family="Times,serif" font-size="14.00" fill="#000000">SharedModule</text>
</g>
<!-- SharedModule&#45;&gt;ScoreSystemModule -->
<g id="edge3" class="edge">
<title>SharedModule&#45;&gt;ScoreSystemModule</title>
<path fill="none" stroke="#000000" d="M101.6236,-122.1061C101.6236,-141.3391 101.6236,-169 101.6236,-169 101.6236,-169 146.6297,-169 146.6297,-169"/>
<polygon fill="#000000" stroke="#000000" points="146.6297,-172.5001 156.6297,-169 146.6297,-165.5001 146.6297,-172.5001"/>
</g>
</g>
</svg>
